<?xml version="1.0" encoding="UTF-8" standalone="no"?>
<!-- Created with Inkscape (http://www.inkscape.org/) -->

<svg
   xmlns:dc="http://purl.org/dc/elements/1.1/"
   xmlns:cc="http://creativecommons.org/ns#"
   xmlns:rdf="http://www.w3.org/1999/02/22-rdf-syntax-ns#"
   xmlns:svg="http://www.w3.org/2000/svg"
   xmlns="http://www.w3.org/2000/svg"
   xmlns:xlink="http://www.w3.org/1999/xlink"
   version="1.1"
   width="743.33386"
   height="555.86456"
   id="svg4246">
  <defs
     id="defs4248">
    <linearGradient
       x1="374.55969"
       y1="-1.0294456"
       x2="374.55969"
       y2="534.92737"
       id="linearGradient5812"
       xlink:href="#linearGradient6760"
       gradientUnits="userSpaceOnUse" />
    <linearGradient
       id="linearGradient6760">
      <stop
         id="stop6762"
         style="stop-color:#cecece;stop-opacity:1"
         offset="0" />
      <stop
         id="stop6764"
         style="stop-color:#ffffff;stop-opacity:1"
         offset="1" />
    </linearGradient>
    <filter
       color-interpolation-filters="sRGB"
       id="filter4566">
      <feGaussianBlur
         id="feGaussianBlur4568"
         stdDeviation="6"
         in="SourceAlpha"
         result="result0" />
      <feSpecularLighting
         id="feSpecularLighting4570"
         in="result0"
         result="result1"
         lighting-color="#ffffff"
         surfaceScale="10"
         specularConstant="1"
         specularExponent="25">
        <feDistantLight
           id="feDistantLight4572"
           elevation="45"
           azimuth="235" />
      </feSpecularLighting>
      <feComposite
         in2="result1"
         operator="arithmetic"
         k1="0"
         k2="1"
         k3="1"
         k4="0"
         in="SourceGraphic"
         result="result4"
         id="feComposite4574" />
      <feComposite
         in2="SourceAlpha"
         operator="in"
         in="result4"
         result="result2"
         id="feComposite4576" />
    </filter>
    <linearGradient
       x1="374.55969"
       y1="-1.0294456"
       x2="374.55969"
       y2="534.92737"
       id="linearGradient4244"
       xlink:href="#linearGradient6760"
       gradientUnits="userSpaceOnUse" />
  </defs>
  <metadata
     id="metadata4251">
    <rdf:RDF>
      <cc:Work
         rdf:about="">
        <dc:format>image/svg+xml</dc:format>
        <dc:type
           rdf:resource="http://purl.org/dc/dcmitype/StillImage" />
        <dc:title></dc:title>
      </cc:Work>
    </rdf:RDF>
  </metadata>
  <g
     transform="translate(-0.18691348,-0.24008262)"
     id="layer1">
    <rect
       width="743.99707"
       height="556.86945"
       x="0"
       y="0.7105158"
       transform="translate(0.18691348,0.24008262)"
       id="rect5523"
       style="color:#000000;fill:#ffffff;fill-opacity:1;fill-rule:nonzero;stroke:none;stroke-width:1.25;marker:none;visibility:visible;display:inline;overflow:visible;enable-background:accumulate" />
    <rect
       width="743.33386"
       height="535.86456"
       ry="0"
       x="0.18691348"
       y="0.24008262"
       id="rect6758"
       style="opacity:0.23706898;fill:url(#linearGradient4244);fill-opacity:1;stroke:none" />
    <g
       transform="matrix(0.75311528,0,0,0.75311528,51.703778,46.60105)"
       id="Layer_1">
      <g
         id="g3095">
        <path
           d="m 766.554,485.76 c -13.371,-4.949 -27.4,-9.173 -41.586,-11.161 -59.627,-8.36 -119.26,-16.726 -178.898,-25.087 -29.514,-4.141 -59.037,-8.279 -88.553,-12.413 -6.861,-0.965 -10.467,-1.615 -16.23,2.852 -8.589,6.65 -17.177,13.304 -25.766,19.956 -2.698,-2.16 -5.396,-4.321 -8.095,-6.48 -7.404,-5.931 -19.497,-8.513 -28.391,-11.172 -8.511,-2.552 -20.736,-7.541 -29.908,-6.277 -21.11,2.922 -42.21,5.846 -63.312,8.774 -69.18,9.581 -138.362,19.157 -207.535,28.742 -2.367,0.325 -4.731,0.654 -7.085,0.982 -3.621,0.5 17.784,9.649 19.767,10.31 10.522,3.496 26.303,10.395 37.771,8.804 82.342,-11.404 164.693,-22.81 247.042,-34.212 7.011,5.61 14.021,11.221 21.032,16.834 7.356,5.883 19.467,8.449 28.289,11.088 5.367,1.603 25.703,9.96 31.15,5.745 16.185,-12.539 32.366,-25.068 48.546,-37.604 90.387,12.672 180.769,25.352 271.157,38.023 12.294,1.724 -7.632,-7.051 -9.395,-7.704 z"
           id="path3097"
           style="fill:#1c75bc" />
        <g
           id="g3099">
          <path
             d="m 454.092,245.988 c -3.492,-3.898 -5.236,-9.493 -5.236,-16.786 0,-7.292 1.744,-12.887 5.236,-16.786 3.49,-3.898 8.496,-5.849 15.018,-5.849 6.52,0 11.516,1.95 14.986,5.849 3.471,3.899 5.205,9.494 5.205,16.786 0,7.293 -1.734,12.888 -5.205,16.786 -3.471,3.899 -8.467,5.849 -14.986,5.849 -6.522,-10e-4 -11.528,-1.95 -15.018,-5.849 z m 7.351,-6.101 c 1.744,2.444 4.301,3.667 7.666,3.667 3.365,0 5.91,-1.223 7.635,-3.667 1.725,-2.444 2.588,-6.007 2.588,-10.686 0,-4.679 -0.863,-8.229 -2.588,-10.653 -1.725,-2.424 -4.27,-3.636 -7.635,-3.636 -3.365,0 -5.922,1.212 -7.666,3.636 -1.746,2.424 -2.619,5.975 -2.619,10.653 0,4.678 0.873,8.242 2.619,10.686 z"
             id="path3101"
             style="fill:#1c75bc" />
          <path
             d="m 496.557,262.332 v -32.94 c 0,-3.161 -0.127,-5.374 -0.379,-6.639 -0.252,-1.265 -0.379,-2.023 -0.379,-2.276 0,-0.673 0.852,-1.179 2.555,-1.517 1.705,-0.337 2.977,-0.506 3.818,-0.506 0.841,0 1.398,0.085 1.672,0.253 0.273,0.169 0.494,0.433 0.662,0.79 0.168,0.358 0.295,0.664 0.379,0.917 0.084,0.253 0.18,0.632 0.285,1.138 0.104,0.506 0.178,0.822 0.221,0.948 0.756,-1.391 1.881,-2.529 3.375,-3.414 1.492,-0.885 3.186,-1.328 5.08,-1.328 3.49,0 6.33,1.508 8.518,4.521 2.188,3.013 3.281,7.166 3.281,12.455 0,5.29 -1.168,9.463 -3.502,12.519 -2.334,3.057 -5.605,4.584 -9.812,4.584 -2.482,0 -4.627,-0.653 -6.436,-1.96 v 12.455 c 0,1.349 -1.262,2.023 -3.785,2.023 h -1.768 c -2.524,0 -3.785,-0.675 -3.785,-2.023 z m 13.755,-17.893 c 3.91,0 5.867,-3.171 5.867,-9.516 0,-6.343 -1.703,-9.516 -5.111,-9.516 -2.02,0 -3.744,1.244 -5.174,3.73 v 14.1 c 1.43,0.802 2.903,1.202 4.418,1.202 z"
             id="path3103"
             style="fill:#1c75bc" />
          <path
             d="m 535.014,247.379 c -2.713,-2.972 -4.068,-7.261 -4.068,-12.867 0,-5.605 1.355,-9.8 4.068,-12.581 2.715,-2.782 6.438,-4.174 11.17,-4.174 4.732,0 8.201,1.518 10.41,4.553 2.209,3.035 3.312,6.955 3.312,11.76 0,0.506 -0.432,1.255 -1.293,2.245 -0.863,0.99 -1.504,1.485 -1.924,1.485 H 540.6 c 0.209,2.402 0.924,4.109 2.145,5.121 1.219,1.012 2.775,1.518 4.67,1.518 1.893,0 3.701,-0.326 5.426,-0.98 1.725,-0.652 2.607,-0.979 2.65,-0.979 0.631,0 1.334,0.622 2.113,1.865 0.777,1.244 1.168,2.224 1.168,2.939 0,1.392 -1.316,2.498 -3.943,3.319 -2.631,0.822 -5.102,1.233 -7.414,1.233 -5.554,0 -9.686,-1.486 -12.401,-4.457 z m 15.806,-15.838 c 0,-1.938 -0.379,-3.487 -1.135,-4.646 -0.758,-1.159 -1.895,-1.739 -3.408,-1.739 -3.113,0 -5.006,2.129 -5.678,6.386 h 10.221 z"
             id="path3105"
             style="fill:#1c75bc" />
          <path
             d="m 566.217,249.434 v -20.043 c 0,-3.161 -0.127,-5.374 -0.379,-6.639 -0.252,-1.265 -0.379,-2.023 -0.379,-2.276 0,-0.673 0.852,-1.179 2.555,-1.517 1.705,-0.337 2.977,-0.506 3.818,-0.506 0.841,0 1.398,0.085 1.672,0.253 0.273,0.169 0.494,0.433 0.662,0.79 0.168,0.358 0.295,0.654 0.379,0.885 0.084,0.232 0.18,0.623 0.285,1.17 0.104,0.548 0.178,0.885 0.221,1.012 1.01,-1.349 2.355,-2.486 4.037,-3.414 1.682,-0.927 3.471,-1.392 5.363,-1.392 3.156,0 5.49,0.833 7.004,2.498 1.516,1.665 2.271,4.247 2.271,7.745 v 21.434 c 0,1.35 -1.262,2.022 -3.785,2.022 h -1.768 c -2.523,0 -3.785,-0.673 -3.785,-2.022 v -20.043 c 0,-2.613 -1.262,-3.92 -3.785,-3.92 -2.105,0 -3.787,1.223 -5.049,3.667 v 20.296 c 0,1.35 -1.262,2.022 -3.785,2.022 h -1.768 c -2.522,0.001 -3.784,-0.672 -3.784,-2.022 z"
             id="path3107"
             style="fill:#1c75bc" />
          <path
             d="m 450.369,330.766 v -39.199 c 0,-1.686 0.84,-2.529 2.523,-2.529 h 23.094 c 1.262,0 1.893,1.053 1.893,3.16 v 1.961 c 0,2.107 -0.631,3.16 -1.893,3.16 h -15.9 v 9.168 h 14.197 c 1.262,0 1.893,1.055 1.893,3.162 v 1.959 c 0,2.109 -0.631,3.162 -1.893,3.162 h -14.197 v 10.242 h 15.965 c 1.262,0 1.893,1.055 1.893,3.162 v 1.959 c 0,2.109 -0.631,3.162 -1.893,3.162 h -23.158 c -1.684,0 -2.524,-0.844 -2.524,-2.529 z"
             id="path3109"
             style="fill:#1c75bc" />
          <path
             d="m 494.916,333.801 c -3.492,0 -6.332,-1.508 -8.518,-4.521 -2.189,-3.014 -3.281,-7.164 -3.281,-12.455 0,-5.289 1.166,-9.463 3.502,-12.52 2.334,-3.055 5.604,-4.584 9.811,-4.584 2.482,0 4.627,0.654 6.438,1.961 v -14.035 c 0,-1.35 1.262,-2.023 3.785,-2.023 h 1.766 c 2.525,0 3.787,0.674 3.787,2.023 v 34.52 c 0,2.615 0.125,4.807 0.379,6.576 l 0.379,2.592 c 0,0.676 -0.854,1.182 -2.557,1.518 -1.703,0.338 -2.977,0.506 -3.816,0.506 -0.842,0 -1.4,-0.084 -1.674,-0.252 -0.274,-0.168 -0.494,-0.443 -0.662,-0.822 -0.168,-0.379 -0.295,-0.695 -0.379,-0.949 -0.084,-0.252 -0.178,-0.664 -0.283,-1.232 -0.105,-0.568 -0.18,-0.916 -0.221,-1.043 -0.758,1.391 -1.883,2.529 -3.375,3.414 -1.495,0.882 -3.188,1.326 -5.081,1.326 z m 2.775,-7.651 c 2.02,0 3.744,-1.244 5.176,-3.73 v -14.1 c -1.432,-0.801 -2.904,-1.201 -4.418,-1.201 -3.912,0 -5.867,3.172 -5.867,9.516 0,6.344 1.703,9.515 5.109,9.515 z"
             id="path3111"
             style="fill:#1c75bc" />
          <path
             d="m 519.838,323.559 v -21.434 c 0,-1.35 1.262,-2.023 3.787,-2.023 h 1.766 c 2.525,0 3.787,0.674 3.787,2.023 v 20.041 c 0,2.615 1.262,3.92 3.785,3.92 2.104,0 3.785,-1.221 5.049,-3.666 v -20.295 c 0,-1.35 1.262,-2.023 3.785,-2.023 h 1.768 c 2.523,0 3.785,0.674 3.785,2.023 v 20.041 c 0,2.615 0.127,4.807 0.379,6.576 l 0.379,2.592 c 0,0.676 -0.854,1.182 -2.557,1.518 -1.703,0.338 -2.977,0.506 -3.816,0.506 -0.842,0 -1.4,-0.084 -1.672,-0.252 -0.275,-0.168 -0.496,-0.453 -0.664,-0.854 -0.168,-0.401 -0.295,-0.717 -0.379,-0.949 -0.084,-0.23 -0.178,-0.643 -0.283,-1.232 -0.105,-0.589 -0.18,-0.949 -0.221,-1.076 -1.01,1.35 -2.346,2.488 -4.006,3.416 -1.662,0.926 -3.461,1.391 -5.396,1.391 -3.154,0 -5.488,-0.832 -7.004,-2.498 -1.514,-1.665 -2.272,-4.247 -2.272,-7.745 z"
             id="path3113"
             style="fill:#1c75bc" />
          <path
             d="m 557.824,329.658 c -2.609,-2.76 -3.912,-6.996 -3.912,-12.707 0,-5.711 1.314,-10.012 3.943,-12.898 2.629,-2.886 6.719,-4.332 12.271,-4.332 2.566,0 4.953,0.391 7.162,1.17 2.209,0.781 3.312,1.846 3.312,3.193 0,0.633 -0.432,1.604 -1.293,2.908 -0.863,1.307 -1.547,1.961 -2.051,1.961 -0.168,0 -0.547,-0.148 -1.137,-0.443 -1.852,-0.926 -3.848,-1.391 -5.994,-1.391 -2.145,0 -3.785,0.781 -4.922,2.34 -1.135,1.559 -1.703,3.982 -1.703,7.27 0,3.289 0.537,5.723 1.609,7.303 1.072,1.582 2.713,2.371 4.922,2.371 2.209,0 4.344,-0.484 6.404,-1.453 0.672,-0.254 1.051,-0.381 1.137,-0.381 0.631,0 1.334,0.623 2.113,1.865 0.777,1.244 1.166,2.246 1.166,3.004 0,0.76 -0.463,1.455 -1.387,2.086 -0.926,0.633 -2.041,1.098 -3.346,1.393 -2.691,0.588 -4.795,0.885 -6.309,0.885 -5.381,-0.001 -9.377,-1.382 -11.985,-4.144 z"
             id="path3115"
             style="fill:#1c75bc" />
          <path
             d="m 584.514,324.568 c 0,-1.178 0.104,-2.254 0.314,-3.223 0.211,-0.971 0.695,-2.014 1.451,-3.131 0.758,-1.115 1.768,-2.033 3.029,-2.75 2.986,-1.77 7.424,-2.656 13.314,-2.656 v -2.086 c 0,-2.402 -1.641,-3.604 -4.922,-3.604 -2.314,0 -4.566,0.506 -6.752,1.518 -0.758,0.338 -1.199,0.506 -1.326,0.506 -0.631,0 -1.336,-0.652 -2.113,-1.961 -0.779,-1.305 -1.166,-2.338 -1.166,-3.098 0,-1.139 1.166,-2.15 3.502,-3.035 2.334,-0.885 5.184,-1.328 8.549,-1.328 9.043,0 13.566,3.521 13.566,10.561 v 11.885 c 0,2.615 0.127,4.807 0.379,6.576 l 0.379,2.592 c 0,0.676 -0.854,1.182 -2.557,1.518 -1.703,0.338 -2.977,0.506 -3.816,0.506 -0.842,0 -1.4,-0.084 -1.672,-0.252 -0.275,-0.168 -0.496,-0.453 -0.664,-0.854 -0.168,-0.401 -0.295,-0.717 -0.379,-0.949 -0.084,-0.23 -0.178,-0.643 -0.283,-1.232 -0.105,-0.589 -0.18,-0.949 -0.221,-1.076 -0.758,1.35 -2.061,2.488 -3.912,3.416 -1.852,0.926 -3.639,1.391 -5.363,1.391 -3.24,0 -5.605,-0.844 -7.1,-2.529 -1.491,-1.687 -2.237,-3.921 -2.237,-6.705 z m 9.275,-0.947 c 0,0.844 0.271,1.518 0.82,2.023 0.545,0.506 1.365,0.758 2.461,0.758 1.092,0 2.166,-0.379 3.217,-1.137 1.051,-0.76 1.83,-1.707 2.336,-2.846 v -3.479 c -5.891,10e-4 -8.834,1.562 -8.834,4.681 z"
             id="path3117"
             style="fill:#1c75bc" />
          <path
             d="m 632.721,326.402 1.703,-0.252 c 0.547,0 1.01,0.621 1.389,1.865 0.379,1.244 0.568,2.139 0.568,2.688 0,2.064 -2.02,3.098 -6.059,3.098 -6.143,0 -9.213,-3.414 -9.213,-10.242 v -15.934 h -1.01 c -1.262,0 -1.893,-1.053 -1.893,-3.162 v -1.074 c 0,-2.107 0.631,-3.162 1.893,-3.162 h 1.01 l 0.82,-6.006 c 0.211,-1.348 1.346,-2.023 3.408,-2.023 h 1.955 c 2.104,0 3.156,0.676 3.156,2.023 v 6.006 h 3.092 c 1.262,0 1.893,1.055 1.893,3.162 v 1.074 c 0,2.109 -0.631,3.162 -1.893,3.162 h -3.092 v 16.059 c 10e-4,1.812 0.757,2.718 2.273,2.718 z"
             id="path3119"
             style="fill:#1c75bc" />
          <path
             d="m 645.34,294.791 c -2.523,0 -3.785,-0.674 -3.785,-2.023 v -5.121 c 0,-1.35 1.262,-2.023 3.785,-2.023 h 1.768 c 2.523,0 3.785,0.674 3.785,2.023 v 5.121 c 0,1.35 -1.262,2.023 -3.785,2.023 h -1.768 z m -3.785,36.607 v -29.273 c 0,-1.35 1.262,-2.023 3.785,-2.023 h 1.768 c 2.523,0 3.785,0.674 3.785,2.023 v 29.273 c 0,1.35 -1.262,2.021 -3.785,2.021 h -1.768 c -2.524,0.001 -3.785,-0.671 -3.785,-2.021 z"
             id="path3121"
             style="fill:#1c75bc" />
          <path
             d="m 661.115,329.406 c -2.609,-2.93 -3.912,-7.154 -3.912,-12.678 0,-5.521 1.303,-9.736 3.912,-12.645 2.607,-2.908 6.414,-4.363 11.42,-4.363 5.006,0 8.803,1.455 11.389,4.363 2.588,2.908 3.881,7.123 3.881,12.645 0,5.523 -1.293,9.748 -3.881,12.678 -2.586,2.93 -6.383,4.395 -11.389,4.395 -5.006,0 -8.812,-1.465 -11.42,-4.395 z m 5.553,-12.644 c 0,6.428 1.945,9.641 5.836,9.641 3.891,0 5.836,-3.213 5.836,-9.641 0,-6.428 -1.945,-9.643 -5.836,-9.643 -3.891,0 -5.836,3.215 -5.836,9.643 z"
             id="path3123"
             style="fill:#1c75bc" />
          <path
             d="m 694.367,331.398 v -20.043 c 0,-3.162 -0.127,-5.375 -0.379,-6.639 -0.252,-1.266 -0.379,-2.023 -0.379,-2.277 0,-0.672 0.852,-1.178 2.555,-1.516 1.705,-0.338 2.977,-0.506 3.818,-0.506 0.841,0 1.398,0.084 1.672,0.252 0.273,0.17 0.494,0.434 0.662,0.791 0.168,0.357 0.295,0.654 0.379,0.885 0.084,0.232 0.18,0.623 0.285,1.17 0.104,0.547 0.178,0.885 0.221,1.012 1.01,-1.35 2.355,-2.486 4.037,-3.414 1.682,-0.928 3.471,-1.393 5.363,-1.393 3.156,0 5.49,0.834 7.004,2.498 1.516,1.666 2.271,4.248 2.271,7.746 v 21.434 c 0,1.35 -1.262,2.021 -3.785,2.021 h -1.768 c -2.523,0 -3.785,-0.672 -3.785,-2.021 v -20.043 c 0,-2.613 -1.262,-3.92 -3.785,-3.92 -2.105,0 -3.787,1.223 -5.049,3.666 v 20.297 c 0,1.35 -1.262,2.021 -3.785,2.021 h -1.768 c -2.522,0.001 -3.784,-0.671 -3.784,-2.021 z"
             id="path3125"
             style="fill:#1c75bc" />
          <path
             d="m 728.25,324.568 c 0,-1.178 0.105,-2.254 0.316,-3.223 0.209,-0.971 0.693,-2.014 1.451,-3.131 0.756,-1.115 1.766,-2.033 3.027,-2.75 2.986,-1.77 7.424,-2.656 13.314,-2.656 v -2.086 c 0,-2.402 -1.641,-3.604 -4.922,-3.604 -2.314,0 -4.564,0.506 -6.752,1.518 -0.756,0.338 -1.197,0.506 -1.324,0.506 -0.631,0 -1.336,-0.652 -2.113,-1.961 -0.779,-1.305 -1.168,-2.338 -1.168,-3.098 0,-1.139 1.168,-2.15 3.502,-3.035 2.334,-0.885 5.184,-1.328 8.551,-1.328 9.043,0 13.564,3.521 13.564,10.561 v 11.885 c 0,2.615 0.127,4.807 0.379,6.576 l 0.379,2.592 c 0,0.676 -0.852,1.182 -2.555,1.518 -1.705,0.338 -2.977,0.506 -3.818,0.506 -0.841,0 -1.398,-0.084 -1.672,-0.252 -0.274,-0.168 -0.494,-0.453 -0.662,-0.854 -0.17,-0.4 -0.295,-0.717 -0.379,-0.949 -0.084,-0.23 -0.18,-0.643 -0.283,-1.232 -0.105,-0.59 -0.18,-0.949 -0.221,-1.076 -0.758,1.35 -2.062,2.488 -3.912,3.416 -1.852,0.926 -3.641,1.391 -5.365,1.391 -3.238,0 -5.605,-0.844 -7.098,-2.529 -1.493,-1.687 -2.239,-3.921 -2.239,-6.705 z m 9.275,-0.947 c 0,0.844 0.273,1.518 0.82,2.023 0.547,0.505 1.367,0.758 2.461,0.758 1.094,0 2.166,-0.379 3.219,-1.137 1.051,-0.76 1.83,-1.707 2.334,-2.846 v -3.479 c -5.89,10e-4 -8.834,1.562 -8.834,4.681 z"
             id="path3127"
             style="fill:#1c75bc" />
          <path
             d="m 775.572,326.402 1.705,-0.252 c 0.545,0 1.01,0.621 1.387,1.865 0.379,1.244 0.568,2.139 0.568,2.688 0,2.064 -2.02,3.098 -6.057,3.098 -6.143,0 -9.213,-3.414 -9.213,-10.242 v -35.912 c 0,-1.35 1.262,-2.023 3.785,-2.023 h 1.768 c 2.523,0 3.785,0.674 3.785,2.023 v 36.037 c 0.001,1.812 0.759,2.718 2.272,2.718 z"
             id="path3129"
             style="fill:#1c75bc" />
          <path
             d="m 450.369,413.361 v -39.832 c 0,-1.686 0.84,-2.529 2.523,-2.529 h 12.305 c 10.475,0 15.711,3.963 15.711,11.887 0,2.361 -0.662,4.416 -1.986,6.164 -1.326,1.75 -3.125,3.047 -5.396,3.889 v 0.254 c 0.799,0.295 1.619,1 2.461,2.117 0.842,1.117 1.535,2.35 2.082,3.699 l 5.553,13.91 c 0.211,0.547 0.316,0.947 0.316,1.201 0,0.844 -1.262,1.264 -3.785,1.264 h -2.588 c -2.104,0 -3.324,-0.443 -3.66,-1.328 l -4.984,-12.328 c -0.715,-1.391 -1.482,-2.371 -2.303,-2.941 -0.82,-0.568 -2.178,-0.854 -4.07,-0.854 h -2.461 v 15.428 c 0,1.35 -1.262,2.023 -3.785,2.023 h -2.146 c -2.525,0 -3.787,-0.674 -3.787,-2.024 z m 9.717,-23.836 h 5.994 c 1.305,0 2.439,-0.527 3.408,-1.58 0.967,-1.053 1.451,-2.328 1.451,-3.826 0,-1.494 -0.475,-2.676 -1.42,-3.541 -0.947,-0.863 -2.24,-1.295 -3.881,-1.295 h -5.553 v 10.242 z"
             id="path3131"
             style="fill:#1c75bc" />
          <path
             d="m 491.225,411.307 c -2.713,-2.971 -4.07,-7.26 -4.07,-12.867 0,-5.605 1.357,-9.799 4.07,-12.58 2.713,-2.783 6.436,-4.174 11.168,-4.174 4.732,0 8.203,1.518 10.412,4.553 2.207,3.035 3.312,6.955 3.312,11.76 0,0.506 -0.432,1.254 -1.295,2.244 -0.861,0.99 -1.504,1.486 -1.924,1.486 h -16.09 c 0.211,2.402 0.924,4.109 2.145,5.121 1.221,1.012 2.777,1.518 4.67,1.518 1.893,0 3.701,-0.326 5.426,-0.98 1.725,-0.652 2.609,-0.98 2.65,-0.98 0.631,0 1.336,0.623 2.115,1.865 0.777,1.244 1.166,2.225 1.166,2.939 0,1.393 -1.314,2.498 -3.943,3.32 -2.629,0.822 -5.102,1.232 -7.414,1.232 -5.553,0 -9.685,-1.487 -12.398,-4.457 z m 15.806,-15.838 c 0,-1.938 -0.379,-3.488 -1.137,-4.646 -0.758,-1.16 -1.893,-1.74 -3.406,-1.74 -3.115,0 -5.008,2.129 -5.68,6.387 h 10.223 z"
             id="path3133"
             style="fill:#1c75bc" />
          <path
             d="m 520.469,411.275 c 0,-0.674 0.4,-1.623 1.199,-2.846 0.799,-1.223 1.514,-1.834 2.145,-1.834 0.084,0 0.842,0.297 2.273,0.887 1.428,0.59 2.732,0.885 3.912,0.885 2.564,0 3.848,-0.949 3.848,-2.846 0,-1.012 -0.432,-1.822 -1.293,-2.434 -0.863,-0.611 -1.914,-1.127 -3.154,-1.549 -1.242,-0.422 -2.482,-0.928 -3.723,-1.518 -1.242,-0.59 -2.295,-1.559 -3.156,-2.908 -0.861,-1.349 -1.293,-3.076 -1.293,-5.186 0,-3.16 1.041,-5.658 3.123,-7.492 2.082,-1.834 4.91,-2.75 8.486,-2.75 1.682,0 3.281,0.168 4.797,0.506 3.027,0.674 4.543,1.834 4.543,3.477 0,0.549 -0.316,1.467 -0.947,2.752 -0.631,1.285 -1.221,1.928 -1.768,1.928 -0.041,0 -0.662,-0.221 -1.861,-0.664 -1.197,-0.443 -2.365,-0.664 -3.502,-0.664 -2.271,0 -3.406,0.76 -3.406,2.275 0,0.844 0.43,1.529 1.293,2.057 0.861,0.527 1.914,1.01 3.154,1.453 1.242,0.443 2.482,0.99 3.725,1.645 1.24,0.654 2.291,1.686 3.154,3.098 0.861,1.412 1.293,3.15 1.293,5.217 0,3.33 -1.084,5.996 -3.25,7.998 -2.166,2.002 -4.879,3.002 -8.139,3.002 -3.26,0 -5.984,-0.391 -8.172,-1.17 -2.188,-0.779 -3.281,-1.885 -3.281,-3.319 z"
             id="path3135"
             style="fill:#1c75bc" />
          <path
             d="m 551.135,411.369 c -2.609,-2.928 -3.912,-7.154 -3.912,-12.676 0,-5.522 1.303,-9.736 3.912,-12.645 2.607,-2.908 6.414,-4.363 11.422,-4.363 5.004,0 8.801,1.455 11.389,4.363 2.586,2.908 3.881,7.123 3.881,12.645 0,5.522 -1.295,9.748 -3.881,12.676 -2.588,2.932 -6.385,4.395 -11.389,4.395 -5.008,0 -8.815,-1.463 -11.422,-4.395 z m 5.553,-12.644 c 0,6.428 1.945,9.643 5.836,9.643 3.891,0 5.838,-3.215 5.838,-9.643 0,-6.428 -1.947,-9.643 -5.838,-9.643 -3.891,0 -5.836,3.215 -5.836,9.643 z"
             id="path3137"
             style="fill:#1c75bc" />
          <path
             d="m 584.197,405.521 v -21.434 c 0,-1.348 1.262,-2.023 3.787,-2.023 h 1.766 c 2.525,0 3.787,0.676 3.787,2.023 v 20.043 c 0,2.613 1.262,3.92 3.785,3.92 2.104,0 3.785,-1.223 5.049,-3.668 v -20.295 c 0,-1.348 1.262,-2.023 3.785,-2.023 h 1.768 c 2.523,0 3.785,0.676 3.785,2.023 v 20.043 c 0,2.613 0.127,4.805 0.379,6.576 l 0.379,2.592 c 0,0.674 -0.854,1.18 -2.557,1.518 -1.703,0.338 -2.977,0.506 -3.816,0.506 -0.842,0 -1.4,-0.084 -1.672,-0.254 -0.275,-0.168 -0.496,-0.453 -0.664,-0.854 -0.168,-0.401 -0.295,-0.717 -0.379,-0.947 -0.084,-0.232 -0.178,-0.643 -0.283,-1.234 -0.105,-0.59 -0.18,-0.947 -0.221,-1.074 -1.01,1.35 -2.346,2.488 -4.006,3.414 -1.662,0.926 -3.461,1.391 -5.396,1.391 -3.154,0 -5.488,-0.832 -7.004,-2.496 -1.514,-1.666 -2.272,-4.247 -2.272,-7.747 z"
             id="path3139"
             style="fill:#1c75bc" />
          <path
             d="m 619.533,413.361 v -20.043 c 0,-3.16 -0.127,-5.373 -0.379,-6.639 -0.252,-1.264 -0.379,-2.023 -0.379,-2.275 0,-0.674 0.852,-1.18 2.555,-1.518 1.705,-0.336 2.977,-0.506 3.818,-0.506 0.841,0 1.398,0.086 1.672,0.254 0.274,0.168 0.494,0.432 0.662,0.789 0.168,0.359 0.295,0.654 0.379,0.885 0.084,0.232 0.18,0.623 0.285,1.17 0.104,0.549 0.178,0.885 0.221,1.012 1.766,-3.203 4.059,-4.805 6.877,-4.805 1.346,0 2.281,0.348 2.809,1.043 0.525,0.695 0.789,1.486 0.789,2.371 0,0.885 -0.189,1.992 -0.568,3.32 -0.379,1.326 -0.842,1.99 -1.389,1.99 -0.252,0 -0.693,-0.084 -1.324,-0.252 -0.631,-0.168 -1.18,-0.254 -1.641,-0.254 -2.105,0 -3.787,1.055 -5.049,3.162 v 20.295 c 0,1.35 -1.262,2.023 -3.785,2.023 h -1.768 c -2.523,0.002 -3.785,-0.672 -3.785,-2.022 z"
             id="path3141"
             style="fill:#1c75bc" />
          <path
             d="m 645.277,411.623 c -2.609,-2.76 -3.912,-6.996 -3.912,-12.709 0,-5.711 1.314,-10.01 3.943,-12.898 2.629,-2.887 6.719,-4.33 12.271,-4.33 2.566,0 4.953,0.391 7.162,1.17 2.209,0.779 3.312,1.844 3.312,3.193 0,0.631 -0.432,1.602 -1.293,2.908 -0.863,1.307 -1.547,1.959 -2.051,1.959 -0.168,0 -0.547,-0.146 -1.137,-0.441 -1.852,-0.928 -3.848,-1.393 -5.994,-1.393 -2.145,0 -3.785,0.781 -4.922,2.34 -1.135,1.561 -1.703,3.984 -1.703,7.271 0,3.287 0.537,5.723 1.609,7.303 1.072,1.58 2.713,2.371 4.922,2.371 2.209,0 4.344,-0.484 6.404,-1.455 0.672,-0.252 1.051,-0.379 1.137,-0.379 0.631,0 1.334,0.623 2.113,1.865 0.777,1.244 1.166,2.244 1.166,3.004 0,0.758 -0.463,1.453 -1.387,2.086 -0.926,0.633 -2.041,1.096 -3.346,1.391 -2.691,0.59 -4.795,0.885 -6.309,0.885 -5.381,0 -9.377,-1.379 -11.985,-4.141 z"
             id="path3143"
             style="fill:#1c75bc" />
          <path
             d="m 676.035,411.307 c -2.713,-2.971 -4.068,-7.26 -4.068,-12.867 0,-5.605 1.355,-9.799 4.068,-12.58 2.715,-2.783 6.438,-4.174 11.17,-4.174 4.732,0 8.201,1.518 10.41,4.553 2.209,3.035 3.312,6.955 3.312,11.76 0,0.506 -0.432,1.254 -1.293,2.244 -0.863,0.99 -1.504,1.486 -1.924,1.486 h -16.09 c 0.209,2.402 0.924,4.109 2.145,5.121 1.219,1.012 2.775,1.518 4.67,1.518 1.893,0 3.701,-0.326 5.426,-0.98 1.725,-0.652 2.607,-0.98 2.65,-0.98 0.631,0 1.334,0.623 2.113,1.865 0.777,1.244 1.168,2.225 1.168,2.939 0,1.393 -1.316,2.498 -3.943,3.32 -2.631,0.822 -5.102,1.232 -7.414,1.232 -5.552,0 -9.685,-1.487 -12.4,-4.457 z m 15.807,-15.838 c 0,-1.938 -0.379,-3.488 -1.135,-4.646 -0.758,-1.16 -1.895,-1.74 -3.408,-1.74 -3.113,0 -5.006,2.129 -5.678,6.387 h 10.221 z"
             id="path3145"
             style="fill:#1c75bc" />
          <path
             d="m 705.281,411.275 c 0,-0.674 0.398,-1.623 1.199,-2.846 0.797,-1.223 1.514,-1.834 2.145,-1.834 0.084,0 0.842,0.297 2.271,0.887 1.429,0.59 2.734,0.885 3.912,0.885 2.564,0 3.85,-0.949 3.85,-2.846 0,-1.012 -0.432,-1.822 -1.295,-2.434 -0.861,-0.611 -1.914,-1.127 -3.154,-1.549 -1.24,-0.422 -2.482,-0.928 -3.723,-1.518 -1.241,-0.59 -2.293,-1.559 -3.154,-2.908 -0.863,-1.35 -1.295,-3.076 -1.295,-5.186 0,-3.16 1.041,-5.658 3.125,-7.492 2.082,-1.834 4.91,-2.75 8.486,-2.75 1.682,0 3.281,0.168 4.795,0.506 3.029,0.674 4.543,1.834 4.543,3.477 0,0.549 -0.314,1.467 -0.945,2.752 -0.633,1.285 -1.221,1.928 -1.768,1.928 -0.043,0 -0.662,-0.221 -1.861,-0.664 -1.199,-0.443 -2.367,-0.664 -3.502,-0.664 -2.271,0 -3.408,0.76 -3.408,2.275 0,0.844 0.432,1.529 1.295,2.057 0.861,0.527 1.912,1.01 3.154,1.453 1.24,0.443 2.482,0.99 3.723,1.645 1.241,0.655 2.293,1.686 3.154,3.098 0.863,1.412 1.295,3.15 1.295,5.217 0,3.33 -1.084,5.996 -3.25,7.998 -2.168,2.002 -4.881,3.002 -8.141,3.002 -3.26,0 -5.984,-0.391 -8.17,-1.17 -2.187,-0.78 -3.281,-1.885 -3.281,-3.319 z"
             id="path3147"
             style="fill:#1c75bc" />
        </g>
        <path
           d="m 110.965,442.281 c 31.407,-8.984 64.035,-14.633 96.487,-18.867 61.657,-8.041 129.616,-9.074 187.796,14.523 6.244,2.527 20.901,7.436 26.407,4.191 6.736,-3.977 6.396,-9.072 6.169,-12.389 -1.431,-38.852 -5.631,-122.283 -5.631,-122.283 0,0 -2.9,-63.2 2.017,-98.805 6.476,-4.289 13.94,-12.213 15.819,-24.77 0.11,-20.291 2.009,-28.715 12.989,-44.916 3.854,-5.689 13.487,-16.718 8.02,-23.186 -5.674,-6.727 -9.197,4.885 -12.023,8.587 -2.474,3.226 -17.329,22.228 -20.995,18.121 -3.779,-4.224 20.493,-48.896 14.438,-57.3 -6.38,-8.861 -14.438,16.224 -15.376,18.246 -4.735,9.86 -8.797,19.924 -12.403,30.129 0.024,0.655 -2.798,1.611 -3.568,0.771 -0.05,-8.318 -0.784,-15.668 -0.349,-27.105 0.518,-13.508 0.719,-37.242 -7.842,-36.447 -9.09,0.842 0.527,59.124 -9.012,63.059 -7.18,2.961 -11.774,-20.318 -13.096,-25.151 -2.205,-8.042 -3.128,-26.646 -10.223,-27.751 -10.275,-1.6 -5.912,14.283 -4.989,19.314 1.491,8.112 15.234,64.004 5.894,68.111 -6.41,2.82 -16.757,-11.991 -23.945,-15.933 -4.698,-2.595 -21.447,-6.646 -20.938,0.761 0.253,3.623 8.955,6.369 11.976,8.771 13.78,10.961 29.495,33.695 42.151,42.672 3.807,3.609 8.26,5.773 12.52,7.083 1.157,3.325 2.09,7.029 2.768,11.204 3.632,41.18 5.598,95.59 6.648,138.27 -12.672,-27.533 -30.098,-53.51 -47.707,-77.512 -9.028,-12.301 -18.492,-24.449 -28.415,-36.252 3.315,-5.334 6.507,-15.12 1.566,-26.35 -8.939,-14.439 -11.34,-21.166 -10.752,-37.004 0.2,-5.564 2.136,-17.203 -4.617,-19.631 -7.013,-2.518 -4.356,7.111 -4.717,10.859 -0.32,3.27 -2.407,22.633 -6.839,21.174 -4.557,-1.508 -7.194,-42.812 -15.23,-46.375 -8.469,-3.756 -3.021,17.236 -2.794,19.037 1.015,8.871 2.615,17.617 4.598,26.289 0.306,0.453 -1.274,2.252 -2.187,1.965 -3.736,-5.882 -7.523,-10.811 -12.297,-19.093 -5.643,-9.792 -18.939,-27.771 -22.348,-21.329 -2.723,5.209 24.301,39.641 22.222,46.877 -1.685,5.885 -17.386,-9.746 -20.469,-12.648 -5.149,-4.826 -14.074,-17.658 -19.589,-15.638 -8.009,2.938 2.146,12.478 5.049,15.674 4.658,5.173 39.258,39.372 34.451,45.991 -3.301,4.535 -17.207,-1.877 -24.066,-1.821 -4.487,0.028 -18.167,3.781 -14.514,8.837 1.793,2.467 9.182,0.971 12.396,1.475 14.646,2.324 35.9,12.217 48.866,13.572 5.126,1.257 10.004,0.695 14.033,-0.42 7.59,9.266 14.933,18.705 22.046,28.227 19.904,26.631 39.447,56.098 52.324,87.424 -23.391,-21.775 -51.482,-39.693 -78.779,-55.49 -13.605,-7.873 -27.598,-15.365 -41.85,-22.365 -0.446,-4.93 -3.49,-14.057 -13.475,-19.209 -13.152,-4.656 -18.219,-7.736 -26.412,-18.191 -2.875,-3.664 -8.006,-12.119 -13.358,-10.203 -5.566,1.986 1.228,6.792 3.028,9.383 1.581,2.25 10.767,15.732 7.325,17.074 -3.534,1.381 -27.419,-23.73 -34.149,-21.887 -7.105,1.945 7.478,12.596 8.598,13.631 5.391,5.17 11.064,9.947 16.935,14.488 0.429,0.123 0.447,2.094 -0.253,2.379 -5.424,-1.854 -10.342,-3.063 -17.67,-5.917 -8.666,-3.378 -22.387,-7.744 -20.95,-1.856 1.187,4.729 31.995,12.583 34.658,18.294 2.158,4.641 -15.692,2.682 -19.107,2.41 -5.681,-0.455 -17.966,-4.094 -20.179,0.049 -3.211,5.988 8.023,6.879 11.492,7.447 5.576,0.912 44.773,5.053 45.463,11.758 0.472,4.605 -11.329,7.645 -15.414,11.205 -2.675,2.32 -8.855,11.748 -3.933,13.111 2.403,0.658 6.03,-4.096 8.229,-5.418 10.037,-6.039 28.119,-10.619 36.627,-16.414 2.32,-1.129 4.211,-2.66 5.751,-4.326 10.013,5.148 19.923,10.467 29.641,15.982 29.134,16.533 59.161,35.893 83.474,59.646 -35.57,-16.828 -75.028,-26.578 -113.729,-33.131 -35.726,-6.039 -72.59,-9.951 -109.184,-9.533 -2.641,0.025 -15.041,-0.287 -15.391,4.57 -0.324,4.746 12.068,5.262 14.695,5.23 30.279,-0.342 60.566,2.811 90.244,7.268 36.44,5.473 74.206,14.471 108.05,30.291 -34.356,-9.176 -70.597,-12.678 -105.837,-13.719 -36.276,-1.062 -73.346,0.135 -109.489,5.582 -2.615,0.396 -14.927,1.783 -14.521,6.639 0.406,4.742 12.742,3.549 15.34,3.156 29.906,-4.502 60.361,-5.559 90.4,-5.223 38.178,0.422 78.346,4.369 115.3,16.277 -36.626,-3 -74.001,-0.963 -109.999,3.111 -39.306,4.457 -79.049,11.254 -117.001,22.113 -2.738,0.783 -15.748,4.027 -14.405,8.758 1.316,4.632 14.397,1.568 17.116,0.792 z"
           id="path3149"
           style="fill:#1c75bc;fill-rule:evenodd" />
      </g>
    </g>
    <g
       id="text3195"
       style="font-size:72px;font-style:normal;font-weight:normal;line-height:125%;letter-spacing:0px;word-spacing:0px;fill:#1c75bc;fill-opacity:1;stroke:none;font-family:Lato;-inkscape-font-specification:Lato">
      <path
         d="m 146.50125,80.060367 0,-33.824 -10.752,0 c -0.74667,3.4e-5 -1.12,-0.559965 -1.12,-1.68 l 0,-0.896 c 0,-1.119962 0.37333,-1.679961 1.12,-1.68 l 26.264,0 c 0.74663,3.9e-5 1.11997,0.560038 1.12,1.68 l 0,0.896 c -3e-5,1.120035 -0.37337,1.680034 -1.12,1.68 l -10.584,0 0,33.824 c -2e-5,0.821333 -0.74669,1.231999 -2.24,1.232 l -0.448,0 c -1.49335,-10e-7 -2.24002,-0.410667 -2.24,-1.232"
         id="path4929"
         style="font-size:56px;text-align:center;text-anchor:middle;fill:#1c75bc;font-family:Asap;-inkscape-font-specification:Asap" />
      <path
         d="m 181.04362,81.516367 c -4.66668,-10e-7 -8.12001,-1.213333 -10.36,-3.64 -2.24,-2.426661 -3.36,-6.122658 -3.36,-11.088 0,-5.002648 1.10133,-8.791977 3.304,-11.368 2.20266,-2.575972 5.33866,-3.863971 9.408,-3.864 7.91464,2.9e-5 11.87197,4.872024 11.872,14.616 -3e-5,0.336014 -0.22403,0.80268 -0.672,1.4 -0.44802,0.597346 -0.84002,0.896012 -1.176,0.896 l -17.696,0 c 0.22399,3.098676 1.02666,5.376007 2.408,6.832 1.38132,1.456004 3.45332,2.184003 6.216,2.184 2.53865,3e-6 4.87198,-0.59733 7,-1.792 0.70931,-0.373328 1.10131,-0.559994 1.176,-0.56 0.37331,6e-6 0.78398,0.373339 1.232,1.12 0.48531,0.74667 0.72797,1.30667 0.728,1.68 -3e-5,0.746669 -1.02669,1.530668 -3.08,2.352 -2.01602,0.821333 -4.34935,1.231999 -7,1.232 m 5.88,-17.08 c -2e-5,-5.898645 -2.24002,-8.847975 -6.72,-8.848 -4.81601,2.5e-5 -7.42934,2.949355 -7.84,8.848 l 14.56,0"
         id="path4931"
         style="font-size:56px;text-align:center;text-anchor:middle;fill:#1c75bc;font-family:Asap;-inkscape-font-specification:Asap" />
      <path
         d="m 215.76712,62.924367 0,-2.632 c -2e-5,-3.135976 -2.05335,-4.703975 -6.16,-4.704 -2.68801,2.5e-5 -5.17067,0.578691 -7.448,1.736 -0.78401,0.41069 -1.21334,0.616023 -1.288,0.616 -0.37334,2.3e-5 -0.80267,-0.37331 -1.288,-1.12 -0.448,-0.746642 -0.672,-1.306641 -0.672,-1.68 0,-0.783974 1.08266,-1.567973 3.248,-2.352 2.20266,-0.821305 4.83466,-1.231971 7.896,-1.232 3.06132,2.9e-5 5.56265,0.784028 7.504,2.352 1.94131,1.530692 2.91198,3.677356 2.912,6.44 l 0,12.544 c -2e-5,2.240006 0.0933,3.864004 0.28,4.872 0.26131,1.381335 0.39198,2.109334 0.392,2.184 -2e-5,0.448 -0.35469,0.784 -1.064,1.008 -0.70936,0.186666 -1.26936,0.279999 -1.68,0.28 -0.37336,-10e-7 -0.63469,-0.03733 -0.784,-0.112 -0.14935,-0.07467 -0.29869,-0.205334 -0.448,-0.392 -0.11202,-0.186667 -0.20535,-0.354666 -0.28,-0.504 -0.0747,-0.186666 -0.14935,-0.429332 -0.224,-0.728 -0.0747,-0.298665 -0.14935,-0.522665 -0.224,-0.672 -0.0374,-0.186665 -0.0934,-0.447998 -0.168,-0.784 -0.0374,-0.37333 -0.0747,-0.615997 -0.112,-0.728 -2.53868,2.800001 -5.67468,4.199999 -9.408,4.2 -2.87467,-10e-7 -5.18934,-0.709333 -6.944,-2.128 -1.75467,-1.418664 -2.632,-3.602662 -2.632,-6.552 0,-2.949323 1.008,-5.151987 3.024,-6.608 2.05333,-1.493317 4.34933,-2.389316 6.888,-2.688 2.53865,-0.335983 5.43198,-0.541316 8.68,-0.616 m -13.552,9.912 c -1e-5,3.061338 1.58666,4.592003 4.76,4.592 1.82932,3e-6 3.39732,-0.335996 4.704,-1.008 1.34398,-0.671995 2.70665,-1.623994 4.088,-2.856 l 0,-6.608 c -4.66668,1.4e-5 -7.67201,0.261347 -9.016,0.784 -0.70934,0.261346 -1.45601,0.597346 -2.24,1.008 -1.53067,0.784011 -2.29601,2.146676 -2.296,4.088"
         id="path4933"
         style="font-size:56px;text-align:center;text-anchor:middle;fill:#1c75bc;font-family:Asap;-inkscape-font-specification:Asap" />
      <path
         d="m 227.85875,66.396367 c -10e-6,-2.799983 0.37333,-5.20798 1.12,-7.224 0.78399,-2.015976 1.82932,-3.565308 3.136,-4.648 2.46399,-1.978639 5.46932,-2.967971 9.016,-2.968 2.16531,2.9e-5 4.10664,0.261362 5.824,0.784 1.71731,0.522695 2.57597,1.120027 2.576,1.792 -3e-5,0.485359 -0.22403,1.120025 -0.672,1.904 -0.41069,0.746691 -0.78403,1.120024 -1.12,1.12 -0.0374,2.4e-5 -0.11203,-0.01864 -0.224,-0.056 -0.0747,-0.03731 -0.14936,-0.05598 -0.224,-0.056 -0.0374,-0.03731 -0.0934,-0.07464 -0.168,-0.112 -2.01602,-0.895975 -4.05069,-1.343975 -6.104,-1.344 -5.41335,2.5e-5 -8.12001,3.565355 -8.12,10.696 -1e-5,3.957344 0.65332,6.813341 1.96,8.568 1.34399,1.754671 3.58398,2.632003 6.72,2.632 2.27731,3e-6 4.38664,-0.48533 6.328,-1.456 0.11197,-0.03733 0.22397,-0.07466 0.336,-0.112 0.14931,-0.07466 0.24264,-0.111995 0.28,-0.112 0.37331,5e-6 0.78397,0.373338 1.232,1.12 0.44797,0.709336 0.67197,1.288002 0.672,1.736 -3e-5,0.672001 -0.87736,1.325334 -2.632,1.96 -1.75469,0.597333 -3.80802,0.895999 -6.16,0.896 -4.62935,-10e-7 -8.08268,-1.194666 -10.36,-3.584 -2.27734,-2.389328 -3.41601,-6.234658 -3.416,-11.536"
         id="path4935"
         style="font-size:56px;text-align:center;text-anchor:middle;fill:#1c75bc;font-family:Asap;-inkscape-font-specification:Asap" />
      <path
         d="m 257.33312,80.060367 0,-39.76 c 0,-0.821292 0.74666,-1.231958 2.24,-1.232 l 0.224,0 c 1.49333,4.2e-5 2.23999,0.410708 2.24,1.232 l 0,15.12 c 2.57599,-2.575972 5.43199,-3.863971 8.568,-3.864 2.12798,2.9e-5 4.05065,0.541362 5.768,1.624 0.93331,0.634694 1.67998,1.586693 2.24,2.856 0.59731,1.269357 0.89597,2.800022 0.896,4.592 l 0,19.432 c -3e-5,0.821333 -0.74669,1.231999 -2.24,1.232 l -0.224,0 c -1.49335,-10e-7 -2.24002,-0.410667 -2.24,-1.232 l 0,-18.984 c -2e-5,-1.679979 -0.48535,-3.005311 -1.456,-3.976 -0.97069,-0.970642 -2.24002,-1.455975 -3.808,-1.456 -1.53068,2.5e-5 -2.89335,0.336025 -4.088,1.008 -1.15734,0.63469 -2.01601,1.269356 -2.576,1.904 l -0.84,1.008 0,20.496 c -1e-5,0.821333 -0.74667,1.231999 -2.24,1.232 l -0.224,0 c -1.49334,-10e-7 -2.24,-0.410667 -2.24,-1.232"
         id="path4937"
         style="font-size:56px;text-align:center;text-anchor:middle;fill:#1c75bc;font-family:Asap;-inkscape-font-specification:Asap" />
      <path
         d="m 298.47562,76.700367 c 0,-0.858662 0.42933,-1.903994 1.288,-3.136 0.85867,-1.231992 1.58666,-1.847991 2.184,-1.848 0.224,9e-6 0.70933,0.205342 1.456,0.616 2.31466,1.306674 4.57332,1.960006 6.776,1.96 3.50932,6e-6 5.26398,-1.362659 5.264,-4.088 -2e-5,-1.194655 -0.56002,-2.202654 -1.68,-3.024 -1.12001,-0.821319 -2.48268,-1.530652 -4.088,-2.128 -1.56801,-0.63465 -3.13601,-1.343983 -4.704,-2.128 -1.568,-0.821315 -2.912,-2.07198 -4.032,-3.752 -1.12,-1.679977 -1.68,-3.770641 -1.68,-6.272 0,-2.538636 0.672,-4.703967 2.016,-6.496 2.42666,-3.247962 6.17866,-4.871961 11.256,-4.872 2.83732,3.9e-5 5.22665,0.410705 7.168,1.232 1.94131,0.82137 2.91198,1.71737 2.912,2.688 -2e-5,0.821368 -0.35469,1.848033 -1.064,3.08 -0.70936,1.194698 -1.38135,1.79203 -2.016,1.792 -0.14935,3e-5 -0.48535,-0.130636 -1.008,-0.392 -1.49335,-0.671969 -3.22935,-1.007968 -5.208,-1.008 -1.94135,3.2e-5 -3.30401,0.336031 -4.088,1.008 -0.74668,0.67203 -1.12001,1.512029 -1.12,2.52 -10e-6,1.008027 0.55999,1.904026 1.68,2.688 1.11999,0.784025 2.46399,1.474691 4.032,2.072 1.56798,0.597356 3.13598,1.306689 4.704,2.128 1.60531,0.784021 2.96798,2.016019 4.088,3.696 1.11998,1.680016 1.67997,3.696014 1.68,6.048 -3e-5,2.314676 -0.37336,4.312007 -1.12,5.992 -0.70936,1.642671 -1.69869,2.930669 -2.968,3.864 -2.46402,1.792 -5.48802,2.687999 -9.072,2.688 -3.58401,-10e-7 -6.58934,-0.541334 -9.016,-1.624 -2.42667,-1.082665 -3.64,-2.183997 -3.64,-3.304"
         id="path4939"
         style="font-style:normal;font-weight:bold;fill:#1c75bc;font-family:Asap;-inkscape-font-specification:Asap" />
      <path
         d="m 328.71562,79.500367 0,-17.752 c 0,-2.799978 -0.112,-4.759976 -0.336,-5.88 -0.224,-1.119974 -0.336,-1.791973 -0.336,-2.016 0,-0.597306 0.74666,-1.045305 2.24,-1.344 1.53066,-0.298638 2.66933,-0.447971 3.416,-0.448 0.74666,2.9e-5 1.23199,0.07469 1.456,0.224 0.26132,0.149362 0.46666,0.392028 0.616,0.728 0.14932,0.298694 0.26132,0.560027 0.336,0.784 0.0747,0.186693 0.14932,0.522693 0.224,1.008 0.11199,0.485359 0.18666,0.784025 0.224,0.896 0.89599,-1.19464 2.07199,-2.202639 3.528,-3.024 1.49332,-0.821304 3.07998,-1.231971 4.76,-1.232 3.84531,2.9e-5 6.30931,1.418695 7.392,4.256 0.93331,-1.19464 2.16531,-2.202639 3.696,-3.024 1.53064,-0.821304 3.1733,-1.231971 4.928,-1.232 2.79996,2.9e-5 4.85329,0.746695 6.16,2.24 1.34396,1.456026 2.01596,3.733357 2.016,6.832 l 0,18.984 c -4e-5,1.194667 -1.12004,1.791999 -3.36,1.792 l -1.568,0 c -2.24003,-10e-7 -3.36003,-0.597333 -3.36,-1.792 l 0,-17.752 c -3e-5,-2.314645 -1.10137,-3.471978 -3.304,-3.472 -1.82936,2.2e-5 -3.30403,1.082688 -4.424,3.248 l 0,17.976 c -3e-5,1.194667 -1.12002,1.791999 -3.36,1.792 l -1.568,0 c -2.24002,-10e-7 -3.36002,-0.597333 -3.36,-1.792 l 0,-17.752 c -2e-5,-2.314645 -1.10135,-3.471978 -3.304,-3.472 -1.82935,2.2e-5 -3.30401,1.082688 -4.424,3.248 l 0,17.976 c -1e-5,1.194667 -1.12001,1.791999 -3.36,1.792 l -1.568,0 c -2.24,-10e-7 -3.36,-0.597333 -3.36,-1.792"
         id="path4941"
         style="font-style:normal;font-weight:bold;fill:#1c75bc;font-family:Asap;-inkscape-font-specification:Asap" />
      <path
         d="m 375.17375,73.452367 c -10e-6,-1.045325 0.0933,-1.997324 0.28,-2.856 0.18666,-0.858656 0.61599,-1.773321 1.288,-2.744 0.67199,-1.007986 1.56799,-1.829319 2.688,-2.464 2.65065,-1.567983 6.58932,-2.351982 11.816,-2.352 l 0,-1.848 c -2e-5,-2.127978 -1.45602,-3.191977 -4.368,-3.192 -2.05335,2.3e-5 -4.05068,0.448022 -5.992,1.344 -0.67201,0.298688 -1.06401,0.448021 -1.176,0.448 -0.56001,2.1e-5 -1.19468,-0.578645 -1.904,-1.736 -0.67201,-1.15731 -1.00801,-2.071975 -1.008,-2.744 -1e-5,-1.007974 1.02666,-1.903973 3.08,-2.688 2.09065,-0.783971 4.62932,-1.175971 7.616,-1.176 8.02664,2.9e-5 12.03997,3.117359 12.04,9.352 l 0,10.528 c -3e-5,2.314674 0.11197,4.256005 0.336,5.824 l 0.336,2.296 c -3e-5,0.597334 -0.76536,1.045334 -2.296,1.344 -1.49336,0.298666 -2.61336,0.447999 -3.36,0.448 -0.74669,-10e-7 -1.25069,-0.07467 -1.512,-0.224 -0.22402,-0.149333 -0.41069,-0.392 -0.56,-0.728 -0.14936,-0.373333 -0.26136,-0.653332 -0.336,-0.84 -0.0747,-0.223999 -0.16802,-0.597331 -0.28,-1.12 -0.0747,-0.522664 -0.13069,-0.839997 -0.168,-0.952 -0.67202,1.194669 -1.82935,2.202668 -3.472,3.024 -1.64268,0.821333 -3.22935,1.231999 -4.76,1.232 -2.87468,-10e-7 -4.98401,-0.746667 -6.328,-2.24 -1.30667,-1.493331 -1.96001,-3.471995 -1.96,-5.936 m 8.232,-0.84 c -1e-5,0.746674 0.24265,1.344007 0.728,1.792 0.48532,0.448006 1.21332,0.672006 2.184,0.672 0.97065,6e-6 1.92265,-0.335994 2.856,-1.008 0.93331,-0.671993 1.62398,-1.511992 2.072,-2.52 l 0,-3.08 c -5.22668,1.2e-5 -7.84001,1.381344 -7.84,4.144"
         id="path4943"
         style="font-style:normal;font-weight:bold;fill:#1c75bc;font-family:Asap;-inkscape-font-specification:Asap" />
      <path
         d="m 406.80937,79.500367 0,-17.752 c 0,-2.799978 -0.112,-4.759976 -0.336,-5.88 -0.224,-1.119974 -0.336,-1.791973 -0.336,-2.016 0,-0.597306 0.74666,-1.045305 2.24,-1.344 1.53066,-0.298638 2.66933,-0.447971 3.416,-0.448 0.74666,2.9e-5 1.23199,0.07469 1.456,0.224 0.26132,0.149362 0.46666,0.392028 0.616,0.728 0.14932,0.298694 0.26132,0.560027 0.336,0.784 0.0747,0.186693 0.14932,0.522693 0.224,1.008 0.11199,0.485359 0.18666,0.784025 0.224,0.896 1.56799,-2.837305 3.60265,-4.255971 6.104,-4.256 1.19465,2.9e-5 2.01598,0.317362 2.464,0.952 0.48531,0.597361 0.72798,1.288027 0.728,2.072 -2e-5,0.784025 -0.16802,1.773358 -0.504,2.968 -0.33602,1.157355 -0.74668,1.736022 -1.232,1.736 -0.22402,2.2e-5 -0.61602,-0.07465 -1.176,-0.224 -0.56002,-0.149311 -1.04535,-0.223978 -1.456,-0.224 -1.86668,2.2e-5 -3.36001,0.933354 -4.48,2.8 l 0,17.976 c -1e-5,1.194667 -1.12001,1.791999 -3.36,1.792 l -1.568,0 c -2.24,-10e-7 -3.36,-0.597333 -3.36,-1.792"
         id="path4945"
         style="font-style:normal;font-weight:bold;fill:#1c75bc;font-family:Asap;-inkscape-font-specification:Asap" />
      <path
         d="m 438.51587,75.076367 1.512,-0.224 c 0.48532,6e-6 0.89598,0.560005 1.232,1.68 0.33598,1.08267 0.50398,1.866669 0.504,2.352 -2e-5,1.829333 -1.79201,2.743999 -5.376,2.744 -5.45067,-10e-7 -8.176,-3.023998 -8.176,-9.072 l 0,-14.112 -0.896,0 c -1.12,2.2e-5 -1.68,-0.93331 -1.68,-2.8 l 0,-0.952 c 0,-1.866639 0.56,-2.799971 1.68,-2.8 l 0.896,0 0.728,-5.32 c 0.18666,-1.194631 1.19466,-1.791964 3.024,-1.792 l 1.736,0 c 1.86666,3.6e-5 2.79999,0.597369 2.8,1.792 l 0,5.32 2.744,0 c 1.11999,2.9e-5 1.67998,0.933361 1.68,2.8 l 0,0.952 c -2e-5,1.86669 -0.56001,2.800022 -1.68,2.8 l -2.744,0 0,14.224 c -10e-6,1.60534 0.67199,2.408006 2.016,2.408"
         id="path4947"
         style="font-style:normal;font-weight:bold;fill:#1c75bc;font-family:Asap;-inkscape-font-specification:Asap" />
      <path
         d="m 460.0085,81.628367 c -4.92802,-10e-7 -8.60534,-1.306666 -11.032,-3.92 -2.38934,-2.650661 -3.58401,-6.458657 -3.584,-11.424 -10e-6,-4.965314 1.19466,-8.679977 3.584,-11.144 2.42666,-2.463972 5.73065,-3.695971 9.912,-3.696 4.21864,2.9e-5 7.29864,1.344028 9.24,4.032 1.97864,2.688023 2.96797,6.160019 2.968,10.416 -3e-5,0.448014 -0.39203,1.120014 -1.176,2.016 -0.7467,0.858679 -1.3067,1.288012 -1.68,1.288 l -14.28,0 c 0.18665,2.128009 0.82132,3.640008 1.904,4.536 1.08265,0.896006 2.46398,1.344006 4.144,1.344 1.67998,6e-6 3.28531,-0.279994 4.816,-0.84 1.53064,-0.597326 2.31464,-0.895993 2.352,-0.896 0.55997,7e-6 1.17597,0.560007 1.848,1.68 0.7093,1.082671 1.06397,1.941337 1.064,2.576 -3e-5,1.232002 -1.17603,2.221334 -3.528,2.968 -2.31469,0.709333 -4.49869,1.063999 -6.552,1.064 m 3.024,-17.976 c -2e-5,-1.717315 -0.33602,-3.07998 -1.008,-4.088 -0.67202,-1.045311 -1.68002,-1.567977 -3.024,-1.568 -2.76268,2.3e-5 -4.44268,1.885354 -5.04,5.656 l 9.072,0"
         id="path4949"
         style="font-style:normal;font-weight:bold;fill:#1c75bc;font-family:Asap;-inkscape-font-specification:Asap" />
      <path
         d="m 476.7,79.500367 0,-17.752 c -10e-6,-2.799978 -0.11201,-4.759976 -0.336,-5.88 -0.22401,-1.119974 -0.33601,-1.791973 -0.336,-2.016 -1e-5,-0.597306 0.74666,-1.045305 2.24,-1.344 1.53066,-0.298638 2.66932,-0.447971 3.416,-0.448 0.74665,2.9e-5 1.23199,0.07469 1.456,0.224 0.26132,0.149362 0.46665,0.392028 0.616,0.728 0.14932,0.298694 0.26132,0.560027 0.336,0.784 0.0747,0.186693 0.14932,0.522693 0.224,1.008 0.11199,0.485359 0.18665,0.784025 0.224,0.896 1.56798,-2.837305 3.60265,-4.255971 6.104,-4.256 1.19464,2.9e-5 2.01598,0.317362 2.464,0.952 0.48531,0.597361 0.72798,1.288027 0.728,2.072 -2e-5,0.784025 -0.16802,1.773358 -0.504,2.968 -0.33602,1.157355 -0.74669,1.736022 -1.232,1.736 -0.22402,2.2e-5 -0.61602,-0.07465 -1.176,-0.224 -0.56002,-0.149311 -1.04535,-0.223978 -1.456,-0.224 -1.86668,2.2e-5 -3.36002,0.933354 -4.48,2.8 l 0,17.976 c -10e-6,1.194667 -1.12001,1.791999 -3.36,1.792 l -1.568,0 c -2.24001,-10e-7 -3.36001,-0.597333 -3.36,-1.792"
         id="path4951"
         style="font-style:normal;font-weight:bold;fill:#1c75bc;font-family:Asap;-inkscape-font-specification:Asap" />
      <path
         d="m 508.92362,52.732367 c 0,-0.634638 0.80267,-0.951971 2.408,-0.952 l 0.504,0 c 1.344,2.9e-5 2.09066,0.298695 2.24,0.896 l 5.88,22.344 5.824,-22.288 c 0.14932,-0.634638 0.87732,-0.951971 2.184,-0.952 l 0.616,0 c 1.26931,2.9e-5 1.99731,0.317362 2.184,0.952 l 5.88,22.288 5.824,-22.344 c 0.1493,-0.597305 0.9893,-0.895971 2.52,-0.896 1.53063,2.9e-5 2.29596,0.317362 2.296,0.952 -4e-5,0.186694 -0.056,0.448028 -0.168,0.784 l -7.504,26.88 c -0.14936,0.597333 -0.89603,0.895999 -2.24,0.896 l -1.848,0 c -1.30669,-10e-7 -2.03469,-0.298667 -2.184,-0.896 l -5.152,-20.384 -5.264,20.384 c -0.14935,0.597333 -0.89601,0.895999 -2.24,0.896 l -1.848,0 c -1.34401,-10e-7 -2.09067,-0.298667 -2.24,-0.896 l -7.504,-26.936 c -0.112,-0.335972 -0.168,-0.578639 -0.168,-0.728"
         id="path4953"
         style="font-size:56px;text-align:center;text-anchor:middle;fill:#1c75bc;font-family:Asap;-inkscape-font-specification:Asap" />
      <path
         d="m 556.13687,44.836367 c -1.49334,3.6e-5 -2.24,-0.41063 -2.24,-1.232 l 0,-3.304 c 0,-0.821292 0.74666,-1.231958 2.24,-1.232 l 0.672,0 c 1.49333,4.2e-5 2.23999,0.410708 2.24,1.232 l 0,3.304 c -10e-6,0.82137 -0.74667,1.232036 -2.24,1.232 l -0.672,0 m -2.016,35.224 0,-27.048 c 0,-0.821305 0.74666,-1.231971 2.24,-1.232 l 0.224,0 c 1.49333,2.9e-5 2.23999,0.410695 2.24,1.232 l 0,27.048 c -1e-5,0.821333 -0.74667,1.231999 -2.24,1.232 l -0.224,0 c -1.49334,-10e-7 -2.24,-0.410667 -2.24,-1.232"
         id="path4955"
         style="font-size:56px;text-align:center;text-anchor:middle;fill:#1c75bc;font-family:Asap;-inkscape-font-specification:Asap" />
      <path
         d="m 569.89187,73.788367 0,-17.864 -2.8,0 c -0.74667,2.5e-5 -1.12,-0.559975 -1.12,-1.68 l 0,-0.672 c 0,-1.119972 0.37333,-1.679971 1.12,-1.68 l 2.8,0 0.672,-5.88 c 0.0747,-0.821298 0.67199,-1.231964 1.792,-1.232 l 0.56,0 c 1.11999,3.6e-5 1.67999,0.410702 1.68,1.232 l 0,5.88 4.704,0 c 0.74665,2.9e-5 1.11999,0.560028 1.12,1.68 l 0,0.672 c -10e-6,1.120025 -0.37335,1.680025 -1.12,1.68 l -4.704,0 0,17.416 c -10e-6,2.762671 1.00799,4.144003 3.024,4.144 0.63465,3e-6 1.17599,-0.03733 1.624,-0.112 0.44799,-0.111997 0.70932,-0.167997 0.784,-0.168 0.33599,3e-6 0.61599,0.35467 0.84,1.064 0.22398,0.672002 0.33598,1.194668 0.336,1.568 -2e-5,1.12 -1.36268,1.679999 -4.088,1.68 -1.86668,-10e-7 -3.54667,-0.56 -5.04,-1.68 -1.456,-1.157331 -2.184,-3.173329 -2.184,-6.048"
         id="path4957"
         style="font-size:56px;text-align:center;text-anchor:middle;fill:#1c75bc;font-family:Asap;-inkscape-font-specification:Asap" />
      <path
         d="m 588.1925,80.060367 0,-39.76 c -10e-6,-0.821292 0.74666,-1.231958 2.24,-1.232 l 0.224,0 c 1.49332,4.2e-5 2.23999,0.410708 2.24,1.232 l 0,15.12 c 2.57598,-2.575972 5.43198,-3.863971 8.568,-3.864 2.12798,2.9e-5 4.05064,0.541362 5.768,1.624 0.93331,0.634694 1.67997,1.586693 2.24,2.856 0.5973,1.269357 0.89597,2.800022 0.896,4.592 l 0,19.432 c -3e-5,0.821333 -0.7467,1.231999 -2.24,1.232 l -0.224,0 c -1.49336,-10e-7 -2.24003,-0.410667 -2.24,-1.232 l 0,-18.984 c -3e-5,-1.679979 -0.48536,-3.005311 -1.456,-3.976 -0.97069,-0.970642 -2.24002,-1.455975 -3.808,-1.456 -1.53069,2.5e-5 -2.89335,0.336025 -4.088,1.008 -1.15735,0.63469 -2.01601,1.269356 -2.576,1.904 l -0.84,1.008 0,20.496 c -10e-6,0.821333 -0.74668,1.231999 -2.24,1.232 l -0.224,0 c -1.49334,-10e-7 -2.24001,-0.410667 -2.24,-1.232"
         id="path4959"
         style="font-size:56px;text-align:center;text-anchor:middle;fill:#1c75bc;font-family:Asap;-inkscape-font-specification:Asap" />
    </g>
    <g
       id="text4005"
       style="font-size:48px;font-style:normal;font-weight:normal;text-align:center;line-height:125%;letter-spacing:0px;word-spacing:0px;text-anchor:middle;fill:#1c75bc;fill-opacity:1;stroke:none;font-family:Asap;-inkscape-font-specification:Asap">
      <path
         d="m 72.806062,479.41823 c 0,-0.0933 0.028,-0.224 0.084,-0.392 l 6.636,-18.396 c 0.09333,-0.29865 0.466659,-0.44798 1.12,-0.448 l 0.812,0 c 0.653324,2e-5 1.026657,0.14935 1.12,0.448 l 6.636,18.424 c 0.05598,0.13066 0.08398,0.252 0.084,0.364 -1.7e-5,0.31733 -0.40135,0.476 -1.204,0.476 l -0.224,0 c -0.653348,0 -1.026681,-0.14934 -1.12,-0.448 l -1.652,-4.592 -8.232,0 -1.596,4.592 c -0.09334,0.29866 -0.466669,0.448 -1.12,0.448 l -0.14,0 c -0.802667,0 -1.204,-0.15867 -1.204,-0.476 m 4.844,-6.692 6.692,0 -2.94,-8.344 -0.364,-1.624 -0.448,1.624 -2.94,8.344"
         id="path4834"
         style="font-size:28px;text-align:end;text-anchor:end;fill:#1c75bc" />
      <path
         d="m 92.161937,479.27823 0,-9.828 c -2e-6,-1.13866 -0.04667,-1.95066 -0.14,-2.436 -0.130669,-0.67199 -0.196002,-1.03599 -0.196,-1.092 -2e-6,-0.22399 0.177331,-0.38266 0.532,-0.476 0.354664,-0.11199 0.62533,-0.16799 0.812,-0.168 0.20533,10e-6 0.34533,0.0187 0.42,0.056 0.07466,0.0373 0.139996,0.10268 0.196,0.196 0.07466,0.0747 0.130663,0.15868 0.168,0.252 0.03733,0.0747 0.07466,0.18668 0.112,0.336 0.03733,0.13068 0.06533,0.24268 0.084,0.336 0.03733,0.0747 0.06533,0.19601 0.084,0.364 0.03733,0.14934 0.06533,0.25201 0.084,0.308 0.989328,-1.39999 2.071994,-2.09999 3.248,-2.1 0.522658,10e-6 0.923991,0.10268 1.204,0.308 0.279991,0.20534 0.419991,0.46668 0.42,0.784 -9e-6,0.31734 -0.05601,0.65334 -0.168,1.008 -0.112009,0.33601 -0.242676,0.50401 -0.392,0.504 -0.07467,1e-5 -0.261342,-0.0467 -0.56,-0.14 -0.280008,-0.11199 -0.625341,-0.16799 -1.036,-0.168 -0.392007,1e-5 -0.802673,0.14934 -1.232,0.448 -0.429339,0.28001 -0.746672,0.56001 -0.952,0.84 l -0.336,0.42 0,10.248 c -5e-6,0.41066 -0.373338,0.616 -1.12,0.616 l -0.112,0 c -0.746669,0 -1.120002,-0.20534 -1.12,-0.616"
         id="path4836"
         style="font-size:28px;text-align:end;text-anchor:end;fill:#1c75bc" />
      <path
         d="m 102.30319,479.27823 0,-9.828 c -1e-5,-1.13866 -0.0467,-1.95066 -0.14,-2.436 -0.13067,-0.67199 -0.196,-1.03599 -0.196,-1.092 0,-0.22399 0.17733,-0.38266 0.532,-0.476 0.35466,-0.11199 0.62533,-0.16799 0.812,-0.168 0.20533,10e-6 0.34533,0.0187 0.42,0.056 0.0747,0.0373 0.13999,0.10268 0.196,0.196 0.0747,0.0747 0.13066,0.15868 0.168,0.252 0.0373,0.0747 0.0747,0.18668 0.112,0.336 0.0373,0.13068 0.0653,0.24268 0.084,0.336 0.0373,0.0747 0.0653,0.19601 0.084,0.364 0.0373,0.14934 0.0653,0.25201 0.084,0.308 1.21332,-1.39999 2.63199,-2.09999 4.256,-2.1 2.03465,10e-6 3.36932,0.77468 4.004,2.324 1.30665,-1.54932 2.79065,-2.32399 4.452,-2.324 1.06398,10e-6 2.01598,0.27068 2.856,0.812 0.46664,0.31734 0.83998,0.79334 1.12,1.428 0.27998,0.63467 0.41998,1.40001 0.42,2.296 l 0,9.716 c -2e-5,0.41066 -0.37336,0.616 -1.12,0.616 l -0.112,0 c -0.74669,0 -1.12002,-0.20534 -1.12,-0.616 l 0,-9.492 c -2e-5,-0.83999 -0.23336,-1.50266 -0.7,-1.988 -0.44802,-0.48532 -1.11069,-0.72799 -1.988,-0.728 -1.15735,1e-5 -2.30535,0.64401 -3.444,1.932 0.0186,0.13067 0.028,0.32667 0.028,0.588 l 0,9.688 c -2e-5,0.41066 -0.37335,0.616 -1.12,0.616 l -0.112,0 c -0.74668,0 -1.12001,-0.20534 -1.12,-0.616 l 0,-9.492 c -1e-5,-0.83999 -0.23335,-1.50266 -0.7,-1.988 -0.44801,-0.48532 -1.04535,-0.72799 -1.792,-0.728 -0.72801,1e-5 -1.38134,0.15868 -1.96,0.476 -0.56001,0.31734 -0.97067,0.64401 -1.232,0.98 l -0.42,0.476 0,10.276 c -1e-5,0.41066 -0.37334,0.616 -1.12,0.616 l -0.112,0 c -0.74667,0 -1.12001,-0.20534 -1.12,-0.616"
         id="path4838"
         style="font-size:28px;text-align:end;text-anchor:end;fill:#1c75bc" />
      <path
         d="m 130.83344,465.61423 c 0,-0.31732 0.40133,-0.47599 1.204,-0.476 l 0.224,0 c 0.61599,10e-6 0.98933,0.14934 1.12,0.448 l 3.808,10.108 3.724,-10.108 c 0.0933,-0.29866 0.50399,-0.44799 1.232,-0.448 0.74665,10e-6 1.11998,0.15868 1.12,0.476 -2e-5,0.0933 -0.028,0.22401 -0.084,0.392 l -7.196,19.068 c -0.14934,0.39199 -0.58801,0.58799 -1.316,0.588 l -0.42,0 c -0.61601,-1e-5 -0.92401,-0.14934 -0.924,-0.448 -10e-6,-0.056 0.83066,-2.10934 2.492,-6.16 l -4.9,-13.076 c -0.056,-0.16799 -0.084,-0.28932 -0.084,-0.364"
         id="path4840"
         style="font-size:28px;text-align:end;text-anchor:end;fill:#1c75bc" />
      <path
         d="m 151.79056,480.00623 c -2.09067,0 -3.696,-0.63467 -4.816,-1.904 -1.10133,-1.26933 -1.652,-3.108 -1.652,-5.516 0,-2.42666 0.56,-4.29333 1.68,-5.6 1.12,-1.30666 2.716,-1.95999 4.788,-1.96 2.07199,10e-6 3.64932,0.65334 4.732,1.96 1.10132,1.28801 1.65199,3.15467 1.652,5.6 -1e-5,2.42667 -0.54134,4.27467 -1.624,5.544 -1.06401,1.25066 -2.65067,1.876 -4.76,1.876 m -3.052,-3.332 c 0.63466,0.87733 1.63333,1.316 2.996,1.316 1.36266,0 2.37066,-0.43867 3.024,-1.316 0.65332,-0.896 0.97999,-2.27733 0.98,-4.144 -1e-5,-1.86666 -0.32668,-3.24799 -0.98,-4.144 -0.65334,-0.89599 -1.66134,-1.34399 -3.024,-1.344 -1.36267,10e-6 -2.36134,0.44801 -2.996,1.344 -0.63467,0.87734 -0.952,2.25867 -0.952,4.144 0,1.86667 0.31733,3.248 0.952,4.144"
         id="path4842"
         style="font-size:28px;text-align:end;text-anchor:end;fill:#1c75bc" />
      <path
         d="m 161.79662,475.47023 0,-9.716 c 0,-0.41066 0.37334,-0.61599 1.12,-0.616 l 0.112,0 c 0.74667,10e-6 1.12,0.20534 1.12,0.616 l 0,9.492 c 0,0.85867 0.24267,1.53067 0.728,2.016 0.504,0.46667 1.21333,0.7 2.128,0.7 1.344,0 2.51999,-0.65333 3.528,-1.96 l 0,-10.248 c -1e-5,-0.41066 0.37333,-0.61599 1.12,-0.616 l 0.112,0 c 0.74666,10e-6 1.11999,0.20534 1.12,0.616 l 0,9.94 c -1e-5,1.12 0.0467,1.932 0.14,2.436 0.13066,0.69066 0.19599,1.05466 0.196,1.092 -1e-5,0.224 -0.17734,0.392 -0.532,0.504 -0.35467,0.0933 -0.63467,0.14 -0.84,0.14 -0.18667,0 -0.31734,-0.0187 -0.392,-0.056 -0.0747,-0.0373 -0.14934,-0.10267 -0.224,-0.196 -0.056,-0.0933 -0.10267,-0.17734 -0.14,-0.252 -0.0373,-0.0933 -0.0747,-0.21467 -0.112,-0.364 -0.0373,-0.14934 -0.0747,-0.26134 -0.112,-0.336 -0.0187,-0.0933 -0.0467,-0.224 -0.084,-0.392 -0.0187,-0.18667 -0.0373,-0.308 -0.056,-0.364 -1.25067,1.4 -2.65067,2.1 -4.2,2.1 -1.53067,0 -2.70667,-0.40134 -3.528,-1.204 -0.80266,-0.80267 -1.204,-1.91333 -1.204,-3.332"
         id="path4844"
         style="font-size:28px;text-align:end;text-anchor:end;fill:#1c75bc" />
      <path
         d="m 177.80256,479.27823 0,-9.828 c 0,-1.13866 -0.0467,-1.95066 -0.14,-2.436 -0.13067,-0.67199 -0.196,-1.03599 -0.196,-1.092 0,-0.22399 0.17733,-0.38266 0.532,-0.476 0.35467,-0.11199 0.62533,-0.16799 0.812,-0.168 0.20533,10e-6 0.34533,0.0187 0.42,0.056 0.0747,0.0373 0.14,0.10268 0.196,0.196 0.0747,0.0747 0.13066,0.15868 0.168,0.252 0.0373,0.0747 0.0747,0.18668 0.112,0.336 0.0373,0.13068 0.0653,0.24268 0.084,0.336 0.0373,0.0747 0.0653,0.19601 0.084,0.364 0.0373,0.14934 0.0653,0.25201 0.084,0.308 0.98933,-1.39999 2.072,-2.09999 3.248,-2.1 0.52266,10e-6 0.92399,0.10268 1.204,0.308 0.27999,0.20534 0.41999,0.46668 0.42,0.784 -1e-5,0.31734 -0.056,0.65334 -0.168,1.008 -0.11201,0.33601 -0.24267,0.50401 -0.392,0.504 -0.0747,1e-5 -0.26134,-0.0467 -0.56,-0.14 -0.28001,-0.11199 -0.62534,-0.16799 -1.036,-0.168 -0.392,1e-5 -0.80267,0.14934 -1.232,0.448 -0.42934,0.28001 -0.74667,0.56001 -0.952,0.84 l -0.336,0.42 0,10.248 c 0,0.41066 -0.37334,0.616 -1.12,0.616 l -0.112,0 c -0.74667,0 -1.12,-0.20534 -1.12,-0.616"
         id="path4846"
         style="font-size:28px;text-align:end;text-anchor:end;fill:#1c75bc" />
      <path
         d="m 186.54381,478.32623 c 0,-0.18667 0.112,-0.46667 0.336,-0.84 0.24267,-0.37333 0.45733,-0.56 0.644,-0.56 0.0187,0 0.168,0.0933 0.448,0.28 0.28,0.168 0.68133,0.34533 1.204,0.532 0.52266,0.168 1.148,0.252 1.876,0.252 0.74666,0 1.35333,-0.20533 1.82,-0.616 0.48533,-0.42933 0.72799,-0.99867 0.728,-1.708 -1e-5,-0.728 -0.21467,-1.288 -0.644,-1.68 -0.41067,-0.41066 -1.24134,-0.79333 -2.492,-1.148 -1.25067,-0.35466 -2.156,-0.80266 -2.716,-1.344 -0.56,-0.55999 -0.84,-1.39999 -0.84,-2.52 0,-1.11999 0.42933,-2.05332 1.288,-2.8 0.85867,-0.76532 1.97866,-1.14799 3.36,-1.148 0.952,10e-6 1.80133,0.12134 2.548,0.364 0.74666,0.24268 1.11999,0.51334 1.12,0.812 -10e-6,0.24268 -0.11201,0.56001 -0.336,0.952 -0.20534,0.37334 -0.39201,0.56001 -0.56,0.56 -0.0187,1e-5 -0.14001,-0.056 -0.364,-0.168 -0.63467,-0.33599 -1.35334,-0.50399 -2.156,-0.504 -0.784,10e-6 -1.4,0.16801 -1.848,0.504 -0.42934,0.31734 -0.644,0.73734 -0.644,1.26 0,0.52267 0.15867,0.93334 0.476,1.232 0.336,0.29867 0.896,0.56934 1.68,0.812 1.75466,0.54134 2.93999,1.13867 3.556,1.792 0.63466,0.63467 0.95199,1.60534 0.952,2.912 -10e-6,1.288 -0.46667,2.352 -1.4,3.192 -0.91467,0.84 -2.016,1.26 -3.304,1.26 -1.288,0 -2.39867,-0.18667 -3.332,-0.56 -0.93333,-0.392 -1.4,-0.76534 -1.4,-1.12"
         id="path4848"
         style="font-size:28px;text-align:end;text-anchor:end;fill:#1c75bc" />
      <path
         d="m 205.50287,480.00623 c -2.33333,0 -4.06,-0.60667 -5.18,-1.82 -1.12,-1.21333 -1.68,-3.06133 -1.68,-5.544 0,-2.50133 0.55067,-4.39599 1.652,-5.684 1.10133,-1.28799 2.66933,-1.93199 4.704,-1.932 3.95733,10e-6 5.93599,2.43601 5.936,7.308 -1e-5,0.168 -0.11201,0.40134 -0.336,0.7 -0.22401,0.29867 -0.42001,0.448 -0.588,0.448 l -8.848,0 c 0.112,1.54933 0.51333,2.688 1.204,3.416 0.69067,0.728 1.72666,1.092 3.108,1.092 1.26933,0 2.43599,-0.29867 3.5,-0.896 0.35466,-0.18667 0.55066,-0.28 0.588,-0.28 0.18666,0 0.39199,0.18667 0.616,0.56 0.24266,0.37333 0.36399,0.65333 0.364,0.84 -1e-5,0.37333 -0.51334,0.76533 -1.54,1.176 -1.00801,0.41066 -2.17467,0.616 -3.5,0.616 m 2.94,-8.54 c -1e-5,-2.94933 -1.12001,-4.42399 -3.36,-4.424 -2.408,10e-6 -3.71467,1.47467 -3.92,4.424 l 7.28,0"
         id="path4850"
         style="font-size:28px;text-align:end;text-anchor:end;fill:#1c75bc" />
      <path
         d="m 214.49262,476.14223 0,-16.744 c 0,-0.41065 0.37334,-0.61598 1.12,-0.616 l 0.112,0 c 0.74667,2e-5 1.12,0.20535 1.12,0.616 l 0,16.52 c 0,1.38133 0.504,2.072 1.512,2.072 0.31733,0 0.588,-0.0187 0.812,-0.056 0.224,-0.056 0.35466,-0.084 0.392,-0.084 0.168,0 0.308,0.17733 0.42,0.532 0.112,0.336 0.168,0.59733 0.168,0.784 0,0.56 -0.68134,0.84 -2.044,0.84 -0.93333,0 -1.77333,-0.28 -2.52,-0.84 -0.728,-0.57867 -1.092,-1.58667 -1.092,-3.024"
         id="path4852"
         style="font-size:28px;text-align:end;text-anchor:end;fill:#1c75bc" />
      <path
         d="m 223.53312,479.27823 0,-12.068 -1.12,0 c -0.37333,10e-6 -0.56,-0.27999 -0.56,-0.84 l 0,-0.336 c 0,-0.55999 0.18667,-0.83999 0.56,-0.84 l 1.12,0 0,-2.66 c 0,-1.60532 0.42933,-2.66932 1.288,-3.192 0.728,-0.44798 1.50267,-0.67198 2.324,-0.672 1.36266,2e-5 2.044,0.28002 2.044,0.84 0,0.18668 -0.056,0.45735 -0.168,0.812 -0.112,0.33602 -0.252,0.50402 -0.42,0.504 -0.0373,2e-5 -0.168,-0.0187 -0.392,-0.056 -0.224,-0.056 -0.54134,-0.084 -0.952,-0.084 -0.392,2e-5 -0.71867,0.14002 -0.98,0.42 -0.26133,0.26135 -0.392,0.81201 -0.392,1.652 l 0,2.436 2.436,0 c 0.37333,10e-6 0.56,0.28001 0.56,0.84 l 0,0.336 c 0,0.56001 -0.18667,0.84001 -0.56,0.84 l -2.436,0 0,12.068 c 0,0.41066 -0.37333,0.616 -1.12,0.616 l -0.112,0 c -0.74667,0 -1.12,-0.20534 -1.12,-0.616"
         id="path4854"
         style="font-size:28px;text-align:end;text-anchor:end;fill:#1c75bc" />
      <path
         d="m 237.2085,465.61423 c 0,-0.31732 0.40133,-0.47599 1.204,-0.476 l 0.252,0 c 0.672,10e-6 1.04533,0.14934 1.12,0.448 l 2.94,11.172 2.912,-11.144 c 0.0747,-0.31732 0.43866,-0.47599 1.092,-0.476 l 0.308,0 c 0.63466,10e-6 0.99865,0.15868 1.092,0.476 l 2.94,11.144 2.912,-11.172 c 0.0746,-0.29866 0.49465,-0.44799 1.26,-0.448 0.76531,10e-6 1.14798,0.15868 1.148,0.476 -2e-5,0.0933 -0.028,0.22401 -0.084,0.392 l -3.752,13.44 c -0.0747,0.29866 -0.44802,0.448 -1.12,0.448 l -0.924,0 c -0.65335,0 -1.01735,-0.14934 -1.092,-0.448 l -2.576,-10.192 -2.632,10.192 c -0.0747,0.29866 -0.44801,0.448 -1.12,0.448 l -0.924,0 c -0.67201,0 -1.04534,-0.14934 -1.12,-0.448 l -3.752,-13.468 c -0.056,-0.16799 -0.084,-0.28932 -0.084,-0.364"
         id="path4856"
         style="font-size:28px;text-align:end;text-anchor:end;fill:#1c75bc" />
      <path
         d="m 260.81512,461.66623 c -0.74666,1e-5 -1.12,-0.20532 -1.12,-0.616 l 0,-1.652 c 0,-0.41065 0.37334,-0.61598 1.12,-0.616 l 0.336,0 c 0.74667,2e-5 1.12,0.20535 1.12,0.616 l 0,1.652 c 0,0.41068 -0.37333,0.61601 -1.12,0.616 l -0.336,0 m -1.008,17.612 0,-13.524 c 0,-0.41066 0.37334,-0.61599 1.12,-0.616 l 0.112,0 c 0.74667,10e-6 1.12,0.20534 1.12,0.616 l 0,13.524 c 0,0.41066 -0.37333,0.616 -1.12,0.616 l -0.112,0 c -0.74666,0 -1.12,-0.20534 -1.12,-0.616"
         id="path4858"
         style="font-size:28px;text-align:end;text-anchor:end;fill:#1c75bc" />
      <path
         d="m 267.69262,476.14223 0,-8.932 -1.4,0 c -0.37333,10e-6 -0.56,-0.27999 -0.56,-0.84 l 0,-0.336 c 0,-0.55999 0.18667,-0.83999 0.56,-0.84 l 1.4,0 0.336,-2.94 c 0.0373,-0.41065 0.336,-0.61599 0.896,-0.616 l 0.28,0 c 0.56,10e-6 0.84,0.20535 0.84,0.616 l 0,2.94 2.352,0 c 0.37333,10e-6 0.56,0.28001 0.56,0.84 l 0,0.336 c 0,0.56001 -0.18667,0.84001 -0.56,0.84 l -2.352,0 0,8.708 c 0,1.38133 0.504,2.072 1.512,2.072 0.31733,0 0.588,-0.0187 0.812,-0.056 0.224,-0.056 0.35466,-0.084 0.392,-0.084 0.168,0 0.308,0.17733 0.42,0.532 0.112,0.336 0.168,0.59733 0.168,0.784 0,0.56 -0.68134,0.84 -2.044,0.84 -0.93333,0 -1.77333,-0.28 -2.52,-0.84 -0.728,-0.57867 -1.092,-1.58667 -1.092,-3.024"
         id="path4860"
         style="font-size:28px;text-align:end;text-anchor:end;fill:#1c75bc" />
      <path
         d="m 276.84294,479.27823 0,-19.88 c -10e-6,-0.41065 0.37333,-0.61598 1.12,-0.616 l 0.112,0 c 0.74666,2e-5 1.11999,0.20535 1.12,0.616 l 0,7.56 c 1.28799,-1.28799 2.71599,-1.93199 4.284,-1.932 1.06399,10e-6 2.02532,0.27068 2.884,0.812 0.46665,0.31734 0.83998,0.79334 1.12,1.428 0.29865,0.63467 0.44798,1.40001 0.448,2.296 l 0,9.716 c -2e-5,0.41066 -0.37335,0.616 -1.12,0.616 l -0.112,0 c -0.74668,0 -1.12001,-0.20534 -1.12,-0.616 l 0,-9.492 c -10e-6,-0.83999 -0.24268,-1.50266 -0.728,-1.988 -0.48535,-0.48532 -1.12001,-0.72799 -1.904,-0.728 -0.76534,1e-5 -1.44668,0.16801 -2.044,0.504 -0.57868,0.31734 -1.00801,0.63467 -1.288,0.952 l -0.42,0.504 0,10.248 c -10e-6,0.41066 -0.37334,0.616 -1.12,0.616 l -0.112,0 c -0.74667,0 -1.12001,-0.20534 -1.12,-0.616"
         id="path4862"
         style="font-size:28px;text-align:end;text-anchor:end;fill:#1c75bc" />
      <path
         d="m 299.79419,476.14223 0,-8.932 -1.4,0 c -0.37334,10e-6 -0.56,-0.27999 -0.56,-0.84 l 0,-0.336 c 0,-0.55999 0.18666,-0.83999 0.56,-0.84 l 1.4,0 0.336,-2.94 c 0.0373,-0.41065 0.33599,-0.61599 0.896,-0.616 l 0.28,0 c 0.55999,10e-6 0.83999,0.20535 0.84,0.616 l 0,2.94 2.352,0 c 0.37332,10e-6 0.55999,0.28001 0.56,0.84 l 0,0.336 c -1e-5,0.56001 -0.18668,0.84001 -0.56,0.84 l -2.352,0 0,8.708 c -10e-6,1.38133 0.50399,2.072 1.512,2.072 0.31732,0 0.58799,-0.0187 0.812,-0.056 0.22399,-0.056 0.35466,-0.084 0.392,-0.084 0.16799,0 0.30799,0.17733 0.42,0.532 0.11199,0.336 0.16799,0.59733 0.168,0.784 -1e-5,0.56 -0.68134,0.84 -2.044,0.84 -0.93334,0 -1.77334,-0.28 -2.52,-0.84 -0.72801,-0.57867 -1.09201,-1.58667 -1.092,-3.024"
         id="path4864"
         style="font-size:28px;text-align:end;text-anchor:end;fill:#1c75bc" />
      <path
         d="m 308.9445,479.27823 0,-19.88 c 0,-0.41065 0.37333,-0.61598 1.12,-0.616 l 0.112,0 c 0.74666,2e-5 1.11999,0.20535 1.12,0.616 l 0,7.56 c 1.28799,-1.28799 2.71599,-1.93199 4.284,-1.932 1.06399,10e-6 2.02532,0.27068 2.884,0.812 0.46665,0.31734 0.83999,0.79334 1.12,1.428 0.29865,0.63467 0.44799,1.40001 0.448,2.296 l 0,9.716 c -1e-5,0.41066 -0.37335,0.616 -1.12,0.616 l -0.112,0 c -0.74668,0 -1.12001,-0.20534 -1.12,-0.616 l 0,-9.492 c -10e-6,-0.83999 -0.24268,-1.50266 -0.728,-1.988 -0.48534,-0.48532 -1.12001,-0.72799 -1.904,-0.728 -0.76534,1e-5 -1.44667,0.16801 -2.044,0.504 -0.57867,0.31734 -1.00801,0.63467 -1.288,0.952 l -0.42,0.504 0,10.248 c -10e-6,0.41066 -0.37334,0.616 -1.12,0.616 l -0.112,0 c -0.74667,0 -1.12,-0.20534 -1.12,-0.616"
         id="path4866"
         style="font-size:28px;text-align:end;text-anchor:end;fill:#1c75bc" />
      <path
         d="m 330.57319,480.00623 c -2.33334,0 -4.06001,-0.60667 -5.18,-1.82 -1.12,-1.21333 -1.68,-3.06133 -1.68,-5.544 0,-2.50133 0.55066,-4.39599 1.652,-5.684 1.10133,-1.28799 2.66932,-1.93199 4.704,-1.932 3.95732,10e-6 5.93598,2.43601 5.936,7.308 -2e-5,0.168 -0.11202,0.40134 -0.336,0.7 -0.22402,0.29867 -0.42002,0.448 -0.588,0.448 l -8.848,0 c 0.11199,1.54933 0.51333,2.688 1.204,3.416 0.69066,0.728 1.72666,1.092 3.108,1.092 1.26932,0 2.43599,-0.29867 3.5,-0.896 0.35465,-0.18667 0.55065,-0.28 0.588,-0.28 0.18665,0 0.39198,0.18667 0.616,0.56 0.24265,0.37333 0.36398,0.65333 0.364,0.84 -2e-5,0.37333 -0.51335,0.76533 -1.54,1.176 -1.00801,0.41066 -2.17468,0.616 -3.5,0.616 m 2.94,-8.54 c -1e-5,-2.94933 -1.12001,-4.42399 -3.36,-4.424 -2.40801,10e-6 -3.71467,1.47467 -3.92,4.424 l 7.28,0"
         id="path4868"
         style="font-size:28px;text-align:end;text-anchor:end;fill:#1c75bc" />
      <path
         d="m 348.7535,485.04623 c -10e-6,0.41066 -0.37334,0.61599 -1.12,0.616 l -0.112,0 c -0.74667,-1e-5 -1.12,-0.20534 -1.12,-0.616 l 0,-15.596 c 0,-1.13866 -0.0467,-1.95066 -0.14,-2.436 -0.13067,-0.67199 -0.196,-1.03599 -0.196,-1.092 0,-0.22399 0.17733,-0.38266 0.532,-0.476 0.35466,-0.11199 0.62533,-0.16799 0.812,-0.168 0.20533,10e-6 0.34533,0.0187 0.42,0.056 0.0747,0.0373 0.14,0.10268 0.196,0.196 0.0747,0.0747 0.13066,0.15868 0.168,0.252 0.0373,0.0747 0.0747,0.18668 0.112,0.336 0.0373,0.13068 0.0653,0.24268 0.084,0.336 0.0373,0.0747 0.0653,0.19601 0.084,0.364 0.0373,0.14934 0.0653,0.25201 0.084,0.308 1.34399,-1.39999 2.83733,-2.09999 4.48,-2.1 1.64266,10e-6 2.94932,0.69068 3.92,2.072 0.98932,1.38134 1.48399,3.15467 1.484,5.32 l 0,0.252 c -1e-5,2.296 -0.52268,4.09733 -1.568,5.404 -1.04535,1.288 -2.35201,1.932 -3.92,1.932 -1.56801,0 -2.96801,-0.476 -4.2,-1.428 l 0,6.468 m 3.388,-7.112 0.168,0 c 1.19466,-0.0187 2.09999,-0.476 2.716,-1.372 0.63465,-0.896 0.95199,-2.212 0.952,-3.948 -1e-5,-1.73599 -0.29868,-3.08933 -0.896,-4.06 -0.59734,-0.98932 -1.51201,-1.48399 -2.744,-1.484 -1.21334,1e-5 -2.40801,0.64401 -3.584,1.932 l 0,7.672 c 1.00799,0.84 2.13733,1.26 3.388,1.26"
         id="path4870"
         style="font-size:28px;text-align:end;text-anchor:end;fill:#1c75bc" />
      <path
         d="m 368.02494,480.00623 c -2.09068,0 -3.69601,-0.63467 -4.816,-1.904 -1.10134,-1.26933 -1.652,-3.108 -1.652,-5.516 0,-2.42666 0.56,-4.29333 1.68,-5.6 1.11999,-1.30666 2.71599,-1.95999 4.788,-1.96 2.07199,10e-6 3.64932,0.65334 4.732,1.96 1.10132,1.28801 1.65198,3.15467 1.652,5.6 -2e-5,2.42667 -0.54135,4.27467 -1.624,5.544 -1.06401,1.25066 -2.65068,1.876 -4.76,1.876 m -3.052,-3.332 c 0.63466,0.87733 1.63332,1.316 2.996,1.316 1.36265,0 2.37065,-0.43867 3.024,-1.316 0.65332,-0.896 0.97999,-2.27733 0.98,-4.144 -10e-6,-1.86666 -0.32668,-3.24799 -0.98,-4.144 -0.65335,-0.89599 -1.66135,-1.34399 -3.024,-1.344 -1.36268,10e-6 -2.36134,0.44801 -2.996,1.344 -0.63467,0.87734 -0.95201,2.25867 -0.952,4.144 -10e-6,1.86667 0.31733,3.248 0.952,4.144"
         id="path4872"
         style="font-size:28px;text-align:end;text-anchor:end;fill:#1c75bc" />
      <path
         d="m 376.771,465.61423 c 0,-0.31732 0.40133,-0.47599 1.204,-0.476 l 0.252,0 c 0.672,10e-6 1.04533,0.14934 1.12,0.448 l 2.94,11.172 2.912,-11.144 c 0.0747,-0.31732 0.43866,-0.47599 1.092,-0.476 l 0.308,0 c 0.63466,10e-6 0.99865,0.15868 1.092,0.476 l 2.94,11.144 2.912,-11.172 c 0.0747,-0.29866 0.49465,-0.44799 1.26,-0.448 0.76531,10e-6 1.14798,0.15868 1.148,0.476 -2e-5,0.0933 -0.028,0.22401 -0.084,0.392 l -3.752,13.44 c -0.0747,0.29866 -0.44802,0.448 -1.12,0.448 l -0.924,0 c -0.65335,0 -1.01735,-0.14934 -1.092,-0.448 l -2.576,-10.192 -2.632,10.192 c -0.0747,0.29866 -0.44801,0.448 -1.12,0.448 l -0.924,0 c -0.67201,0 -1.04534,-0.14934 -1.12,-0.448 l -3.752,-13.468 c -0.056,-0.16799 -0.084,-0.28932 -0.084,-0.364"
         id="path4874"
         style="font-size:28px;text-align:end;text-anchor:end;fill:#1c75bc" />
      <path
         d="m 405.22162,480.00623 c -2.33333,0 -4.06,-0.60667 -5.18,-1.82 -1.12,-1.21333 -1.68,-3.06133 -1.68,-5.544 0,-2.50133 0.55067,-4.39599 1.652,-5.684 1.10133,-1.28799 2.66933,-1.93199 4.704,-1.932 3.95733,10e-6 5.93599,2.43601 5.936,7.308 -10e-6,0.168 -0.11201,0.40134 -0.336,0.7 -0.22401,0.29867 -0.42001,0.448 -0.588,0.448 l -8.848,0 c 0.112,1.54933 0.51333,2.688 1.204,3.416 0.69067,0.728 1.72666,1.092 3.108,1.092 1.26933,0 2.43599,-0.29867 3.5,-0.896 0.35466,-0.18667 0.55066,-0.28 0.588,-0.28 0.18666,0 0.39199,0.18667 0.616,0.56 0.24266,0.37333 0.36399,0.65333 0.364,0.84 -10e-6,0.37333 -0.51334,0.76533 -1.54,1.176 -1.00801,0.41066 -2.17467,0.616 -3.5,0.616 m 2.94,-8.54 c -1e-5,-2.94933 -1.12001,-4.42399 -3.36,-4.424 -2.408,10e-6 -3.71467,1.47467 -3.92,4.424 l 7.28,0"
         id="path4876"
         style="font-size:28px;text-align:end;text-anchor:end;fill:#1c75bc" />
      <path
         d="m 414.43537,479.27823 0,-9.828 c 0,-1.13866 -0.0467,-1.95066 -0.14,-2.436 -0.13066,-0.67199 -0.196,-1.03599 -0.196,-1.092 0,-0.22399 0.17734,-0.38266 0.532,-0.476 0.35467,-0.11199 0.62533,-0.16799 0.812,-0.168 0.20533,10e-6 0.34533,0.0187 0.42,0.056 0.0747,0.0373 0.14,0.10268 0.196,0.196 0.0747,0.0747 0.13067,0.15868 0.168,0.252 0.0373,0.0747 0.0747,0.18668 0.112,0.336 0.0373,0.13068 0.0653,0.24268 0.084,0.336 0.0373,0.0747 0.0653,0.19601 0.084,0.364 0.0373,0.14934 0.0653,0.25201 0.084,0.308 0.98933,-1.39999 2.072,-2.09999 3.248,-2.1 0.52266,10e-6 0.924,0.10268 1.204,0.308 0.28,0.20534 0.42,0.46668 0.42,0.784 0,0.31734 -0.056,0.65334 -0.168,1.008 -0.112,0.33601 -0.24267,0.50401 -0.392,0.504 -0.0747,1e-5 -0.26134,-0.0467 -0.56,-0.14 -0.28,-0.11199 -0.62534,-0.16799 -1.036,-0.168 -0.392,1e-5 -0.80267,0.14934 -1.232,0.448 -0.42933,0.28001 -0.74667,0.56001 -0.952,0.84 l -0.336,0.42 0,10.248 c 0,0.41066 -0.37333,0.616 -1.12,0.616 l -0.112,0 c -0.74666,0 -1.12,-0.20534 -1.12,-0.616"
         id="path4878"
         style="font-size:28px;text-align:end;text-anchor:end;fill:#1c75bc" />
      <path
         d="m 58.165562,515.00623 c -2.090672,0 -3.696004,-0.63467 -4.816,-1.904 -1.101335,-1.26933 -1.652001,-3.108 -1.652,-5.516 -10e-7,-2.42666 0.559998,-4.29333 1.68,-5.6 1.119996,-1.30666 2.715994,-1.95999 4.788,-1.96 2.07199,10e-6 3.649322,0.65334 4.732,1.96 1.10132,1.28801 1.651986,3.15467 1.652,5.6 -1.4e-5,2.42667 -0.541347,4.27467 -1.624,5.544 -1.064011,1.25066 -2.650677,1.876 -4.76,1.876 m -3.052,-3.332 c 0.634661,0.87733 1.633327,1.316 2.996,1.316 1.362658,0 2.370657,-0.43867 3.024,-1.316 0.653322,-0.896 0.979988,-2.27733 0.98,-4.144 -1.2e-5,-1.86666 -0.326678,-3.24799 -0.98,-4.144 -0.653343,-0.89599 -1.661342,-1.34399 -3.024,-1.344 -1.362673,10e-6 -2.361339,0.44801 -2.996,1.344 -0.634671,0.87734 -0.952004,2.25867 -0.952,4.144 -4e-6,1.86667 0.317329,3.248 0.952,4.144"
         id="path4880"
         style="font-size:28px;text-align:end;text-anchor:end;fill:#1c75bc" />
      <path
         d="m 69.095625,514.27823 0,-12.068 -1.12,0 c -0.373335,10e-6 -0.560002,-0.27999 -0.56,-0.84 l 0,-0.336 c -2e-6,-0.55999 0.186665,-0.83999 0.56,-0.84 l 1.12,0 0,-2.66 c -3e-6,-1.60532 0.42933,-2.66932 1.288,-3.192 0.727995,-0.44798 1.502661,-0.67198 2.324,-0.672 1.362658,2e-5 2.043991,0.28002 2.044,0.84 -9e-6,0.18668 -0.05601,0.45735 -0.168,0.812 -0.112009,0.33602 -0.252009,0.50402 -0.42,0.504 -0.03734,2e-5 -0.168008,-0.0187 -0.392,-0.056 -0.224008,-0.056 -0.541341,-0.084 -0.952,-0.084 -0.392007,2e-5 -0.718673,0.14002 -0.98,0.42 -0.261339,0.26135 -0.392006,0.81201 -0.392,1.652 l 0,2.436 2.436,0 c 0.373325,10e-6 0.559991,0.28001 0.56,0.84 l 0,0.336 c -9e-6,0.56001 -0.186675,0.84001 -0.56,0.84 l -2.436,0 0,12.068 c -6e-6,0.41066 -0.373339,0.616 -1.12,0.616 l -0.112,0 c -0.74667,0 -1.120003,-0.20534 -1.12,-0.616"
         id="path4882"
         style="font-size:28px;text-align:end;text-anchor:end;fill:#1c75bc" />
      <path
         d="m 84.927,511.14223 0,-8.932 -1.4,0 c -0.373335,10e-6 -0.560001,-0.27999 -0.56,-0.84 l 0,-0.336 c -10e-7,-0.55999 0.186665,-0.83999 0.56,-0.84 l 1.4,0 0.336,-2.94 c 0.03733,-0.41065 0.335996,-0.61599 0.896,-0.616 l 0.28,0 c 0.559995,10e-6 0.839994,0.20535 0.84,0.616 l 0,2.94 2.352,0 c 0.373325,10e-6 0.559991,0.28001 0.56,0.84 l 0,0.336 c -9e-6,0.56001 -0.186675,0.84001 -0.56,0.84 l -2.352,0 0,8.708 c -6e-6,1.38133 0.503994,2.072 1.512,2.072 0.317326,0 0.587992,-0.0187 0.812,-0.056 0.223992,-0.056 0.354658,-0.084 0.392,-0.084 0.167992,0 0.307991,0.17733 0.42,0.532 0.111991,0.336 0.167991,0.59733 0.168,0.784 -9e-6,0.56 -0.681342,0.84 -2.044,0.84 -0.933339,0 -1.773338,-0.28 -2.52,-0.84 -0.728004,-0.57867 -1.092003,-1.58667 -1.092,-3.024"
         id="path4884"
         style="font-size:28px;text-align:end;text-anchor:end;fill:#1c75bc" />
      <path
         d="m 94.077312,514.27823 0,-19.88 c -2e-6,-0.41065 0.373331,-0.61598 1.12,-0.616 l 0.112,0 c 0.746662,2e-5 1.119995,0.20535 1.12,0.616 l 0,7.56 c 1.287994,-1.28799 2.715993,-1.93199 4.283998,-1.932 1.06399,10e-6 2.02532,0.27068 2.884,0.812 0.46666,0.31734 0.83999,0.79334 1.12,1.428 0.29866,0.63467 0.44799,1.40001 0.448,2.296 l 0,9.716 c -1e-5,0.41066 -0.37334,0.616 -1.12,0.616 l -0.112,0 c -0.74668,0 -1.12001,-0.20534 -1.12,-0.616 l 0,-9.492 c -1e-5,-0.83999 -0.24268,-1.50266 -0.728,-1.988 -0.48534,-0.48532 -1.12001,-0.72799 -1.904,-0.728 -0.765339,1e-5 -1.446672,0.16801 -2.043998,0.504 -0.578672,0.31734 -1.008005,0.63467 -1.288,0.952 l -0.42,0.504 0,10.248 c -5e-6,0.41066 -0.373338,0.616 -1.12,0.616 l -0.112,0 c -0.746669,0 -1.120002,-0.20534 -1.12,-0.616"
         id="path4886"
         style="font-size:28px;text-align:end;text-anchor:end;fill:#1c75bc" />
      <path
         d="m 115.706,515.00623 c -2.33334,0 -4.06,-0.60667 -5.18,-1.82 -1.12,-1.21333 -1.68,-3.06133 -1.68,-5.544 0,-2.50133 0.55066,-4.39599 1.652,-5.684 1.10133,-1.28799 2.66933,-1.93199 4.704,-1.932 3.95732,10e-6 5.93599,2.43601 5.936,7.308 -1e-5,0.168 -0.11201,0.40134 -0.336,0.7 -0.22401,0.29867 -0.42001,0.448 -0.588,0.448 l -8.848,0 c 0.112,1.54933 0.51333,2.688 1.204,3.416 0.69066,0.728 1.72666,1.092 3.108,1.092 1.26932,0 2.43599,-0.29867 3.5,-0.896 0.35465,-0.18667 0.55065,-0.28 0.588,-0.28 0.18665,0 0.39199,0.18667 0.616,0.56 0.24265,0.37333 0.36399,0.65333 0.364,0.84 -10e-6,0.37333 -0.51335,0.76533 -1.54,1.176 -1.00801,0.41066 -2.17468,0.616 -3.5,0.616 m 2.94,-8.54 c -1e-5,-2.94933 -1.12001,-4.42399 -3.36,-4.424 -2.40801,10e-6 -3.71467,1.47467 -3.92,4.424 l 7.28,0"
         id="path4888"
         style="font-size:28px;text-align:end;text-anchor:end;fill:#1c75bc" />
      <path
         d="m 129.96631,500.61423 c 0,-0.31732 0.40133,-0.47599 1.204,-0.476 l 0.252,0 c 0.672,10e-6 1.04533,0.14934 1.12,0.448 l 2.94,11.172 2.912,-11.144 c 0.0747,-0.31732 0.43866,-0.47599 1.092,-0.476 l 0.308,0 c 0.63466,10e-6 0.99866,0.15868 1.092,0.476 l 2.94,11.144 2.912,-11.172 c 0.0746,-0.29866 0.49465,-0.44799 1.26,-0.448 0.76532,10e-6 1.14798,0.15868 1.148,0.476 -2e-5,0.0933 -0.028,0.22401 -0.084,0.392 l -3.752,13.44 c -0.0747,0.29866 -0.44801,0.448 -1.12,0.448 l -0.924,0 c -0.65334,0 -1.01734,-0.14934 -1.092,-0.448 l -2.576,-10.192 -2.632,10.192 c -0.0747,0.29866 -0.44801,0.448 -1.12,0.448 l -0.924,0 c -0.672,0 -1.04534,-0.14934 -1.12,-0.448 l -3.752,-13.468 c -0.056,-0.16799 -0.084,-0.28932 -0.084,-0.364"
         id="path4890"
         style="font-size:28px;text-align:end;text-anchor:end;fill:#1c75bc" />
      <path
         d="m 158.41694,515.00623 c -2.33334,0 -4.06001,-0.60667 -5.18,-1.82 -1.12,-1.21333 -1.68,-3.06133 -1.68,-5.544 0,-2.50133 0.55066,-4.39599 1.652,-5.684 1.10133,-1.28799 2.66932,-1.93199 4.704,-1.932 3.95732,10e-6 5.93598,2.43601 5.936,7.308 -2e-5,0.168 -0.11202,0.40134 -0.336,0.7 -0.22402,0.29867 -0.42002,0.448 -0.588,0.448 l -8.848,0 c 0.11199,1.54933 0.51333,2.688 1.204,3.416 0.69066,0.728 1.72666,1.092 3.108,1.092 1.26932,0 2.43599,-0.29867 3.5,-0.896 0.35465,-0.18667 0.55065,-0.28 0.588,-0.28 0.18665,0 0.39198,0.18667 0.616,0.56 0.24265,0.37333 0.36398,0.65333 0.364,0.84 -2e-5,0.37333 -0.51335,0.76533 -1.54,1.176 -1.00801,0.41066 -2.17468,0.616 -3.5,0.616 m 2.94,-8.54 c -1e-5,-2.94933 -1.12001,-4.42399 -3.36,-4.424 -2.40801,10e-6 -3.71467,1.47467 -3.92,4.424 l 7.28,0"
         id="path4892"
         style="font-size:28px;text-align:end;text-anchor:end;fill:#1c75bc" />
      <path
         d="m 167.49069,514.27823 0,-19.88 c -1e-5,-0.41065 0.37333,-0.61598 1.12,-0.616 l 0.112,0 c 0.74666,2e-5 1.11999,0.20535 1.12,0.616 l 0,7.056 c 1.23199,-0.95199 2.63199,-1.42799 4.2,-1.428 1.56799,10e-6 2.87465,0.65334 3.92,1.96 1.04532,1.28801 1.56798,3.08001 1.568,5.376 l 0,0.252 c -2e-5,2.16533 -0.49468,3.93867 -1.484,5.32 -0.97068,1.38133 -2.27735,2.072 -3.92,2.072 -1.64268,0 -3.13601,-0.7 -4.48,-2.1 l -0.448,1.652 c -0.0933,0.224 -0.34534,0.336 -0.756,0.336 l -0.112,0 c -0.56001,0 -0.84001,-0.20534 -0.84,-0.616 m 2.352,-3.248 c 1.17599,1.288 2.37999,1.932 3.612,1.932 2.40799,0 3.61199,-1.88533 3.612,-5.656 -1e-5,-1.66133 -0.31735,-2.93999 -0.952,-3.836 -0.61601,-0.89599 -1.52135,-1.35332 -2.716,-1.372 l -0.168,0 c -1.25068,10e-6 -2.38001,0.42001 -3.388,1.26 l 0,7.672"
         id="path4894"
         style="font-size:28px;text-align:end;text-anchor:end;fill:#1c75bc" />
      <path
         d="m 191.362,496.66623 c -0.74667,1e-5 -1.12,-0.20532 -1.12,-0.616 l 0,-1.652 c 0,-0.41065 0.37333,-0.61598 1.12,-0.616 l 0.336,0 c 0.74666,2e-5 1.11999,0.20535 1.12,0.616 l 0,1.652 c -1e-5,0.41068 -0.37334,0.61601 -1.12,0.616 l -0.336,0 m -1.008,17.612 0,-13.524 c 0,-0.41066 0.37333,-0.61599 1.12,-0.616 l 0.112,0 c 0.74666,10e-6 1.11999,0.20534 1.12,0.616 l 0,13.524 c -10e-6,0.41066 -0.37334,0.616 -1.12,0.616 l -0.112,0 c -0.74667,0 -1.12,-0.20534 -1.12,-0.616"
         id="path4896"
         style="font-size:28px;text-align:end;text-anchor:end;fill:#1c75bc" />
      <path
         d="m 197.6515,514.27823 0,-9.828 c 0,-1.13866 -0.0467,-1.95066 -0.14,-2.436 -0.13067,-0.67199 -0.196,-1.03599 -0.196,-1.092 0,-0.22399 0.17733,-0.38266 0.532,-0.476 0.35466,-0.11199 0.62533,-0.16799 0.812,-0.168 0.20533,10e-6 0.34533,0.0187 0.42,0.056 0.0747,0.0373 0.14,0.10268 0.196,0.196 0.0747,0.0747 0.13066,0.15868 0.168,0.252 0.0373,0.0747 0.0747,0.18668 0.112,0.336 0.0373,0.13068 0.0653,0.24268 0.084,0.336 0.0373,0.0747 0.0653,0.19601 0.084,0.364 0.0373,0.14934 0.0653,0.25201 0.084,0.308 1.25066,-1.39999 2.64133,-2.09999 4.172,-2.1 1.54932,10e-6 2.72532,0.40134 3.528,1.204 0.82132,0.80268 1.23199,1.91334 1.232,3.332 l 0,9.716 c -1e-5,0.41066 -0.37335,0.616 -1.12,0.616 l -0.112,0 c -0.74668,0 -1.12001,-0.20534 -1.12,-0.616 l 0,-9.492 c -10e-6,-0.85866 -0.25201,-1.52133 -0.756,-1.988 -0.48534,-0.48532 -1.18534,-0.72799 -2.1,-0.728 -1.34401,1e-5 -2.52001,0.65334 -3.528,1.96 l 0,10.248 c -1e-5,0.41066 -0.37334,0.616 -1.12,0.616 l -0.112,0 c -0.74667,0 -1.12,-0.20534 -1.12,-0.616"
         id="path4898"
         style="font-size:28px;text-align:end;text-anchor:end;fill:#1c75bc" />
      <path
         d="m 220.58,514.27823 0,-12.068 -1.12,0 c -0.37334,10e-6 -0.56,-0.27999 -0.56,-0.84 l 0,-0.336 c 0,-0.55999 0.18666,-0.83999 0.56,-0.84 l 1.12,0 0,-2.66 c 0,-1.60532 0.42933,-2.66932 1.288,-3.192 0.72799,-0.44798 1.50266,-0.67198 2.324,-0.672 1.36266,2e-5 2.04399,0.28002 2.044,0.84 -1e-5,0.18668 -0.056,0.45735 -0.168,0.812 -0.11201,0.33602 -0.25201,0.50402 -0.42,0.504 -0.0373,2e-5 -0.16801,-0.0187 -0.392,-0.056 -0.22401,-0.056 -0.54134,-0.084 -0.952,-0.084 -0.39201,2e-5 -0.71867,0.14002 -0.98,0.42 -0.26134,0.26135 -0.39201,0.81201 -0.392,1.652 l 0,2.436 2.436,0 c 0.37332,10e-6 0.55999,0.28001 0.56,0.84 l 0,0.336 c -1e-5,0.56001 -0.18668,0.84001 -0.56,0.84 l -2.436,0 0,12.068 c -10e-6,0.41066 -0.37334,0.616 -1.12,0.616 l -0.112,0 c -0.74667,0 -1.12,-0.20534 -1.12,-0.616"
         id="path4900"
         style="font-size:28px;text-align:end;text-anchor:end;fill:#1c75bc" />
      <path
         d="m 234.69681,515.00623 c -2.09067,0 -3.696,-0.63467 -4.816,-1.904 -1.10133,-1.26933 -1.652,-3.108 -1.652,-5.516 0,-2.42666 0.56,-4.29333 1.68,-5.6 1.12,-1.30666 2.716,-1.95999 4.788,-1.96 2.07199,10e-6 3.64932,0.65334 4.732,1.96 1.10132,1.28801 1.65199,3.15467 1.652,5.6 -1e-5,2.42667 -0.54134,4.27467 -1.624,5.544 -1.06401,1.25066 -2.65067,1.876 -4.76,1.876 m -3.052,-3.332 c 0.63466,0.87733 1.63333,1.316 2.996,1.316 1.36266,0 2.37066,-0.43867 3.024,-1.316 0.65332,-0.896 0.97999,-2.27733 0.98,-4.144 -1e-5,-1.86666 -0.32668,-3.24799 -0.98,-4.144 -0.65334,-0.89599 -1.66134,-1.34399 -3.024,-1.344 -1.36267,10e-6 -2.36134,0.44801 -2.996,1.344 -0.63467,0.87734 -0.952,2.25867 -0.952,4.144 0,1.86667 0.31733,3.248 0.952,4.144"
         id="path4902"
         style="font-size:28px;text-align:end;text-anchor:end;fill:#1c75bc" />
      <path
         d="m 244.70287,510.47023 0,-9.716 c 0,-0.41066 0.37334,-0.61599 1.12,-0.616 l 0.112,0 c 0.74667,10e-6 1.12,0.20534 1.12,0.616 l 0,9.492 c 0,0.85867 0.24267,1.53067 0.728,2.016 0.504,0.46667 1.21333,0.7 2.128,0.7 1.344,0 2.51999,-0.65333 3.528,-1.96 l 0,-10.248 c -1e-5,-0.41066 0.37333,-0.61599 1.12,-0.616 l 0.112,0 c 0.74666,10e-6 1.11999,0.20534 1.12,0.616 l 0,9.94 c -1e-5,1.12 0.0467,1.932 0.14,2.436 0.13066,0.69066 0.19599,1.05466 0.196,1.092 -10e-6,0.224 -0.17734,0.392 -0.532,0.504 -0.35467,0.0933 -0.63467,0.14 -0.84,0.14 -0.18667,0 -0.31734,-0.0187 -0.392,-0.056 -0.0747,-0.0373 -0.14934,-0.10267 -0.224,-0.196 -0.056,-0.0933 -0.10267,-0.17734 -0.14,-0.252 -0.0373,-0.0933 -0.0747,-0.21467 -0.112,-0.364 -0.0373,-0.14934 -0.0747,-0.26134 -0.112,-0.336 -0.0187,-0.0933 -0.0467,-0.224 -0.084,-0.392 -0.0187,-0.18667 -0.0373,-0.308 -0.056,-0.364 -1.25067,1.4 -2.65067,2.1 -4.2,2.1 -1.53067,0 -2.70667,-0.40134 -3.528,-1.204 -0.80266,-0.80267 -1.204,-1.91333 -1.204,-3.332"
         id="path4904"
         style="font-size:28px;text-align:end;text-anchor:end;fill:#1c75bc" />
      <path
         d="m 260.70881,514.27823 0,-9.828 c 0,-1.13866 -0.0467,-1.95066 -0.14,-2.436 -0.13067,-0.67199 -0.196,-1.03599 -0.196,-1.092 0,-0.22399 0.17733,-0.38266 0.532,-0.476 0.35467,-0.11199 0.62533,-0.16799 0.812,-0.168 0.20533,10e-6 0.34533,0.0187 0.42,0.056 0.0747,0.0373 0.14,0.10268 0.196,0.196 0.0747,0.0747 0.13066,0.15868 0.168,0.252 0.0373,0.0747 0.0747,0.18668 0.112,0.336 0.0373,0.13068 0.0653,0.24268 0.084,0.336 0.0373,0.0747 0.0653,0.19601 0.084,0.364 0.0373,0.14934 0.0653,0.25201 0.084,0.308 0.98933,-1.39999 2.072,-2.09999 3.248,-2.1 0.52266,10e-6 0.92399,0.10268 1.204,0.308 0.27999,0.20534 0.41999,0.46668 0.42,0.784 -10e-6,0.31734 -0.056,0.65334 -0.168,1.008 -0.11201,0.33601 -0.24267,0.50401 -0.392,0.504 -0.0747,1e-5 -0.26134,-0.0467 -0.56,-0.14 -0.28001,-0.11199 -0.62534,-0.16799 -1.036,-0.168 -0.392,1e-5 -0.80267,0.14934 -1.232,0.448 -0.42934,0.28001 -0.74667,0.56001 -0.952,0.84 l -0.336,0.42 0,10.248 c 0,0.41066 -0.37334,0.616 -1.12,0.616 l -0.112,0 c -0.74667,0 -1.12,-0.20534 -1.12,-0.616"
         id="path4906"
         style="font-size:28px;text-align:end;text-anchor:end;fill:#1c75bc" />
      <path
         d="m 276.17662,513.32623 c 0,-0.18667 0.112,-0.46667 0.336,-0.84 0.24267,-0.37333 0.45734,-0.56 0.644,-0.56 0.0187,0 0.168,0.0933 0.448,0.28 0.28,0.168 0.68133,0.34533 1.204,0.532 0.52267,0.168 1.148,0.252 1.876,0.252 0.74667,0 1.35333,-0.20533 1.82,-0.616 0.48533,-0.42933 0.728,-0.99867 0.728,-1.708 0,-0.728 -0.21467,-1.288 -0.644,-1.68 -0.41067,-0.41066 -1.24133,-0.79333 -2.492,-1.148 -1.25067,-0.35466 -2.156,-0.80266 -2.716,-1.344 -0.56,-0.55999 -0.84,-1.39999 -0.84,-2.52 0,-1.11999 0.42934,-2.05332 1.288,-2.8 0.85867,-0.76532 1.97867,-1.14799 3.36,-1.148 0.952,10e-6 1.80133,0.12134 2.548,0.364 0.74666,0.24268 1.12,0.51334 1.12,0.812 0,0.24268 -0.112,0.56001 -0.336,0.952 -0.20534,0.37334 -0.392,0.56001 -0.56,0.56 -0.0187,1e-5 -0.14,-0.056 -0.364,-0.168 -0.63467,-0.33599 -1.35334,-0.50399 -2.156,-0.504 -0.784,10e-6 -1.4,0.16801 -1.848,0.504 -0.42933,0.31734 -0.644,0.73734 -0.644,1.26 0,0.52267 0.15867,0.93334 0.476,1.232 0.336,0.29867 0.896,0.56934 1.68,0.812 1.75466,0.54134 2.94,1.13867 3.556,1.792 0.63466,0.63467 0.95199,1.60534 0.952,2.912 -10e-6,1.288 -0.46667,2.352 -1.4,3.192 -0.91467,0.84 -2.016,1.26 -3.304,1.26 -1.288,0 -2.39867,-0.18667 -3.332,-0.56 -0.93333,-0.392 -1.4,-0.76534 -1.4,-1.12"
         id="path4908"
         style="font-size:28px;text-align:end;text-anchor:end;fill:#1c75bc" />
      <path
         d="m 289.31169,514.27823 0,-19.88 c -10e-6,-0.41065 0.37333,-0.61598 1.12,-0.616 l 0.112,0 c 0.74666,2e-5 1.11999,0.20535 1.12,0.616 l 0,7.56 c 1.28799,-1.28799 2.71599,-1.93199 4.284,-1.932 1.06399,10e-6 2.02532,0.27068 2.884,0.812 0.46665,0.31734 0.83998,0.79334 1.12,1.428 0.29865,0.63467 0.44798,1.40001 0.448,2.296 l 0,9.716 c -2e-5,0.41066 -0.37335,0.616 -1.12,0.616 l -0.112,0 c -0.74668,0 -1.12001,-0.20534 -1.12,-0.616 l 0,-9.492 c -10e-6,-0.83999 -0.24268,-1.50266 -0.728,-1.988 -0.48535,-0.48532 -1.12001,-0.72799 -1.904,-0.728 -0.76534,1e-5 -1.44668,0.16801 -2.044,0.504 -0.57868,0.31734 -1.00801,0.63467 -1.288,0.952 l -0.42,0.504 0,10.248 c -10e-6,0.41066 -0.37334,0.616 -1.12,0.616 l -0.112,0 c -0.74667,0 -1.12001,-0.20534 -1.12,-0.616"
         id="path4910"
         style="font-size:28px;text-align:end;text-anchor:end;fill:#1c75bc" />
      <path
         d="m 310.54837,515.00623 c -2.09067,0 -3.696,-0.63467 -4.816,-1.904 -1.10133,-1.26933 -1.652,-3.108 -1.652,-5.516 0,-2.42666 0.56,-4.29333 1.68,-5.6 1.12,-1.30666 2.716,-1.95999 4.788,-1.96 2.07199,10e-6 3.64933,0.65334 4.732,1.96 1.10132,1.28801 1.65199,3.15467 1.652,5.6 -10e-6,2.42667 -0.54134,4.27467 -1.624,5.544 -1.06401,1.25066 -2.65067,1.876 -4.76,1.876 m -3.052,-3.332 c 0.63467,0.87733 1.63333,1.316 2.996,1.316 1.36266,0 2.37066,-0.43867 3.024,-1.316 0.65333,-0.896 0.97999,-2.27733 0.98,-4.144 -1e-5,-1.86666 -0.32667,-3.24799 -0.98,-4.144 -0.65334,-0.89599 -1.66134,-1.34399 -3.024,-1.344 -1.36267,10e-6 -2.36133,0.44801 -2.996,1.344 -0.63467,0.87734 -0.952,2.25867 -0.952,4.144 0,1.86667 0.31733,3.248 0.952,4.144"
         id="path4912"
         style="font-size:28px;text-align:end;text-anchor:end;fill:#1c75bc" />
      <path
         d="m 320.97444,514.27823 0,-9.828 c -1e-5,-1.13866 -0.0467,-1.95066 -0.14,-2.436 -0.13067,-0.67199 -0.196,-1.03599 -0.196,-1.092 0,-0.22399 0.17733,-0.38266 0.532,-0.476 0.35466,-0.11199 0.62533,-0.16799 0.812,-0.168 0.20533,10e-6 0.34533,0.0187 0.42,0.056 0.0747,0.0373 0.13999,0.10268 0.196,0.196 0.0747,0.0747 0.13066,0.15868 0.168,0.252 0.0373,0.0747 0.0747,0.18668 0.112,0.336 0.0373,0.13068 0.0653,0.24268 0.084,0.336 0.0373,0.0747 0.0653,0.19601 0.084,0.364 0.0373,0.14934 0.0653,0.25201 0.084,0.308 0.98932,-1.39999 2.07199,-2.09999 3.248,-2.1 0.52266,10e-6 0.92399,0.10268 1.204,0.308 0.27999,0.20534 0.41999,0.46668 0.42,0.784 -10e-6,0.31734 -0.056,0.65334 -0.168,1.008 -0.11201,0.33601 -0.24268,0.50401 -0.392,0.504 -0.0747,1e-5 -0.26134,-0.0467 -0.56,-0.14 -0.28001,-0.11199 -0.62534,-0.16799 -1.036,-0.168 -0.39201,1e-5 -0.80268,0.14934 -1.232,0.448 -0.42934,0.28001 -0.74667,0.56001 -0.952,0.84 l -0.336,0.42 0,10.248 c -10e-6,0.41066 -0.37334,0.616 -1.12,0.616 l -0.112,0 c -0.74667,0 -1.12001,-0.20534 -1.12,-0.616"
         id="path4914"
         style="font-size:28px;text-align:end;text-anchor:end;fill:#1c75bc" />
      <path
         d="m 331.73169,511.14223 0,-8.932 -1.4,0 c -0.37334,10e-6 -0.56,-0.27999 -0.56,-0.84 l 0,-0.336 c 0,-0.55999 0.18666,-0.83999 0.56,-0.84 l 1.4,0 0.336,-2.94 c 0.0373,-0.41065 0.33599,-0.61599 0.896,-0.616 l 0.28,0 c 0.55999,10e-6 0.83999,0.20535 0.84,0.616 l 0,2.94 2.352,0 c 0.37332,10e-6 0.55999,0.28001 0.56,0.84 l 0,0.336 c -1e-5,0.56001 -0.18668,0.84001 -0.56,0.84 l -2.352,0 0,8.708 c -10e-6,1.38133 0.50399,2.072 1.512,2.072 0.31732,0 0.58799,-0.0187 0.812,-0.056 0.22399,-0.056 0.35466,-0.084 0.392,-0.084 0.16799,0 0.30799,0.17733 0.42,0.532 0.11199,0.336 0.16799,0.59733 0.168,0.784 -1e-5,0.56 -0.68134,0.84 -2.044,0.84 -0.93334,0 -1.77334,-0.28 -2.52,-0.84 -0.72801,-0.57867 -1.09201,-1.58667 -1.092,-3.024"
         id="path4916"
         style="font-size:28px;text-align:end;text-anchor:end;fill:#1c75bc" />
      <path
         d="m 345.87256,500.61423 c 0,-0.31732 0.40133,-0.47599 1.204,-0.476 l 0.252,0 c 0.672,10e-6 1.04533,0.14934 1.12,0.448 l 2.94,11.172 2.912,-11.144 c 0.0747,-0.31732 0.43866,-0.47599 1.092,-0.476 l 0.308,0 c 0.63466,10e-6 0.99866,0.15868 1.092,0.476 l 2.94,11.144 2.912,-11.172 c 0.0746,-0.29866 0.49465,-0.44799 1.26,-0.448 0.76532,10e-6 1.14798,0.15868 1.148,0.476 -2e-5,0.0933 -0.028,0.22401 -0.084,0.392 l -3.752,13.44 c -0.0747,0.29866 -0.44801,0.448 -1.12,0.448 l -0.924,0 c -0.65334,0 -1.01734,-0.14934 -1.092,-0.448 l -2.576,-10.192 -2.632,10.192 c -0.0747,0.29866 -0.44801,0.448 -1.12,0.448 l -0.924,0 c -0.672,0 -1.04534,-0.14934 -1.12,-0.448 l -3.752,-13.468 c -0.056,-0.16799 -0.084,-0.28932 -0.084,-0.364"
         id="path4918"
         style="font-size:28px;text-align:end;text-anchor:end;fill:#1c75bc" />
      <path
         d="m 374.32319,515.00623 c -2.33334,0 -4.06001,-0.60667 -5.18,-1.82 -1.12,-1.21333 -1.68,-3.06133 -1.68,-5.544 0,-2.50133 0.55066,-4.39599 1.652,-5.684 1.10133,-1.28799 2.66932,-1.93199 4.704,-1.932 3.95732,10e-6 5.93598,2.43601 5.936,7.308 -2e-5,0.168 -0.11202,0.40134 -0.336,0.7 -0.22402,0.29867 -0.42002,0.448 -0.588,0.448 l -8.848,0 c 0.11199,1.54933 0.51333,2.688 1.204,3.416 0.69066,0.728 1.72666,1.092 3.108,1.092 1.26932,0 2.43599,-0.29867 3.5,-0.896 0.35465,-0.18667 0.55065,-0.28 0.588,-0.28 0.18665,0 0.39198,0.18667 0.616,0.56 0.24265,0.37333 0.36398,0.65333 0.364,0.84 -2e-5,0.37333 -0.51335,0.76533 -1.54,1.176 -1.00801,0.41066 -2.17468,0.616 -3.5,0.616 m 2.94,-8.54 c -1e-5,-2.94933 -1.12001,-4.42399 -3.36,-4.424 -2.40801,10e-6 -3.71467,1.47467 -3.92,4.424 l 7.28,0"
         id="path4920"
         style="font-size:28px;text-align:end;text-anchor:end;fill:#1c75bc" />
      <path
         d="m 389.41694,515.00623 c -2.33334,0 -4.06001,-0.60667 -5.18,-1.82 -1.12,-1.21333 -1.68,-3.06133 -1.68,-5.544 0,-2.50133 0.55066,-4.39599 1.652,-5.684 1.10133,-1.28799 2.66932,-1.93199 4.704,-1.932 3.95732,10e-6 5.93598,2.43601 5.936,7.308 -2e-5,0.168 -0.11202,0.40134 -0.336,0.7 -0.22402,0.29867 -0.42002,0.448 -0.588,0.448 l -8.848,0 c 0.11199,1.54933 0.51333,2.688 1.204,3.416 0.69066,0.728 1.72666,1.092 3.108,1.092 1.26932,0 2.43599,-0.29867 3.5,-0.896 0.35465,-0.18667 0.55065,-0.28 0.588,-0.28 0.18665,0 0.39198,0.18667 0.616,0.56 0.24265,0.37333 0.36398,0.65333 0.364,0.84 -2e-5,0.37333 -0.51335,0.76533 -1.54,1.176 -1.00801,0.41066 -2.17468,0.616 -3.5,0.616 m 2.94,-8.54 c -1e-5,-2.94933 -1.12001,-4.42399 -3.36,-4.424 -2.40801,10e-6 -3.71467,1.47467 -3.92,4.424 l 7.28,0"
         id="path4922"
         style="font-size:28px;text-align:end;text-anchor:end;fill:#1c75bc" />
      <path
         d="m 398.74269,514.27823 0,-19.88 c -10e-6,-0.41065 0.37333,-0.61598 1.12,-0.616 l 0.112,0 c 0.74666,2e-5 1.11999,0.20535 1.12,0.616 l 0,12.516 0.112,0 5.348,-6.384 c 0.20532,-0.26132 0.69999,-0.39199 1.484,-0.392 l 0.112,0 c 0.65332,10e-6 0.97998,0.12134 0.98,0.364 -2e-5,0.16801 -0.0934,0.35468 -0.28,0.56 l -5.208,6.16 5.768,6.832 c 0.16798,0.18666 0.25198,0.336 0.252,0.448 -2e-5,0.26133 -0.41068,0.392 -1.232,0.392 l -0.112,0 c -0.80268,0 -1.30668,-0.12134 -1.512,-0.364 l -5.6,-6.636 -0.112,0 0,6.384 c -1e-5,0.41066 -0.37334,0.616 -1.12,0.616 l -0.112,0 c -0.74667,0 -1.12001,-0.20534 -1.12,-0.616"
         id="path4924"
         style="font-size:28px;text-align:end;text-anchor:end;fill:#1c75bc" />
      <path
         d="m 411.63756,513.32623 c 0,-0.18667 0.112,-0.46667 0.336,-0.84 0.24267,-0.37333 0.45733,-0.56 0.644,-0.56 0.0187,0 0.168,0.0933 0.448,0.28 0.28,0.168 0.68133,0.34533 1.204,0.532 0.52266,0.168 1.148,0.252 1.876,0.252 0.74666,0 1.35333,-0.20533 1.82,-0.616 0.48533,-0.42933 0.72799,-0.99867 0.728,-1.708 -10e-6,-0.728 -0.21467,-1.288 -0.644,-1.68 -0.41067,-0.41066 -1.24134,-0.79333 -2.492,-1.148 -1.25067,-0.35466 -2.156,-0.80266 -2.716,-1.344 -0.56,-0.55999 -0.84,-1.39999 -0.84,-2.52 0,-1.11999 0.42933,-2.05332 1.288,-2.8 0.85867,-0.76532 1.97866,-1.14799 3.36,-1.148 0.952,10e-6 1.80133,0.12134 2.548,0.364 0.74666,0.24268 1.11999,0.51334 1.12,0.812 -1e-5,0.24268 -0.11201,0.56001 -0.336,0.952 -0.20534,0.37334 -0.39201,0.56001 -0.56,0.56 -0.0187,1e-5 -0.14001,-0.056 -0.364,-0.168 -0.63467,-0.33599 -1.35334,-0.50399 -2.156,-0.504 -0.784,10e-6 -1.4,0.16801 -1.848,0.504 -0.42934,0.31734 -0.644,0.73734 -0.644,1.26 0,0.52267 0.15867,0.93334 0.476,1.232 0.336,0.29867 0.896,0.56934 1.68,0.812 1.75466,0.54134 2.93999,1.13867 3.556,1.792 0.63466,0.63467 0.95199,1.60534 0.952,2.912 -10e-6,1.288 -0.46667,2.352 -1.4,3.192 -0.91467,0.84 -2.016,1.26 -3.304,1.26 -1.288,0 -2.39867,-0.18667 -3.332,-0.56 -0.93333,-0.392 -1.4,-0.76534 -1.4,-1.12"
         id="path4926"
         style="font-size:28px;text-align:end;text-anchor:end;fill:#1c75bc" />
    </g>
    <g
       transform="matrix(0.69156963,0,0,0.69156963,232.96617,26.847171)"
       id="g4179"
       style="filter:url(#filter4566)">
      <a
         xlink:href="https://docs.google.com/forms/d/1Pwv6ZOPRNaqD2KDOXSwZk0eRLcaUbfeb8B2B7svQin4/viewform"
         id="a5499">
        <path
           d="m 355.58839,618.64453 267.44252,0 c 11.09836,0 20.03315,8.93479 20.03315,20.03315 l 0,53.08785 c 0,11.09836 -8.93479,20.03315 -20.03315,20.03315 l -267.44252,0 c -11.09837,0 -20.03315,-8.93479 -20.03315,-20.03315 l 0,-53.08785 c 0,-11.09836 8.93478,-20.03315 20.03315,-20.03315 z"
           id="rect4077"
           style="fill:#1c75bc;fill-opacity:1" />
      </a>
      <a
         xlink:href="https://docs.google.com/forms/d/1Pwv6ZOPRNaqD2KDOXSwZk0eRLcaUbfeb8B2B7svQin4/viewform"
         id="a5488">
        <g
           id="text4175"
           style="font-size:48px;font-style:normal;font-weight:normal;text-align:center;line-height:125%;letter-spacing:0px;word-spacing:0px;text-anchor:middle;fill:#ffffff;fill-opacity:1;stroke:none;font-family:Asap;-inkscape-font-specification:Asap">
          <path
             d="m 386.73046,678.30561 0,-30.72 c 0,-0.95997 0.48,-1.43997 1.44,-1.44 l 16.752,0 c 0.63998,3e-5 0.95998,0.48003 0.96,1.44 l 0,0.768 c -2e-5,0.96003 -0.32002,1.44003 -0.96,1.44 l -13.968,0 0,10.944 12.528,0 c 0.63998,10e-6 0.95998,0.48001 0.96,1.44 l 0,0.768 c -2e-5,0.96001 -0.32002,1.44001 -0.96,1.44 l -12.528,0 0,11.712 14.016,0 c 0.63998,0 0.95998,0.48 0.96,1.44 l 0,0.768 c -2e-5,0.96 -0.32002,1.44 -0.96,1.44 l -16.8,0 c -0.96,0 -1.44,-0.48 -1.44,-1.44"
             id="path4817"
             style="fill:#ffffff;fill-opacity:1" />
          <path
             d="m 412.45246,678.78561 0,-16.848 c 0,-1.95198 -0.08,-3.34398 -0.24,-4.176 -0.224,-1.15198 -0.336,-1.77598 -0.336,-1.872 0,-0.38398 0.304,-0.65598 0.912,-0.816 0.608,-0.19198 1.072,-0.28798 1.392,-0.288 0.352,2e-5 0.592,0.032 0.72,0.096 0.128,0.064 0.24,0.17602 0.336,0.336 0.128,0.12802 0.224,0.27202 0.288,0.432 0.064,0.12802 0.128,0.32002 0.192,0.576 0.064,0.22402 0.112,0.41602 0.144,0.576 0.064,0.12802 0.112,0.33602 0.144,0.624 0.064,0.25602 0.112,0.43202 0.144,0.528 2.14399,-2.39998 4.52799,-3.59998 7.152,-3.6 2.65599,2e-5 4.67198,0.68802 6.048,2.064 1.40798,1.37602 2.11198,3.28002 2.112,5.712 l 0,16.656 c -2e-5,0.704 -0.64002,1.056 -1.92,1.056 l -0.192,0 c -1.28002,0 -1.92002,-0.352 -1.92,-1.056 l 0,-16.272 c -2e-5,-1.47199 -0.43202,-2.60798 -1.296,-3.408 -0.83201,-0.83198 -2.03201,-1.24798 -3.6,-1.248 -2.30401,2e-5 -4.32001,1.12002 -6.048,3.36 l 0,17.568 c -1e-5,0.704 -0.64,1.056 -1.92,1.056 l -0.192,0 c -1.28,0 -1.92,-0.352 -1.92,-1.056"
             id="path4819"
             style="fill:#ffffff;fill-opacity:1" />
          <path
             d="m 439.36321,678.78561 0,-16.848 c 0,-1.95198 -0.08,-3.34398 -0.24,-4.176 -0.224,-1.15198 -0.336,-1.77598 -0.336,-1.872 0,-0.38398 0.304,-0.65598 0.912,-0.816 0.608,-0.19198 1.072,-0.28798 1.392,-0.288 0.352,2e-5 0.592,0.032 0.72,0.096 0.128,0.064 0.24,0.17602 0.336,0.336 0.128,0.12802 0.224,0.27202 0.288,0.432 0.064,0.12802 0.128,0.32002 0.192,0.576 0.064,0.22402 0.112,0.41602 0.144,0.576 0.064,0.12802 0.112,0.33602 0.144,0.624 0.064,0.25602 0.11199,0.43202 0.144,0.528 1.69599,-2.39998 3.55199,-3.59998 5.568,-3.6 0.89599,2e-5 1.58399,0.17602 2.064,0.528 0.47999,0.35202 0.71999,0.80002 0.72,1.344 -10e-6,0.54402 -0.096,1.12002 -0.288,1.728 -0.19201,0.57602 -0.41601,0.86402 -0.672,0.864 -0.12801,2e-5 -0.44801,-0.08 -0.96,-0.24 -0.48001,-0.19198 -1.07201,-0.28798 -1.776,-0.288 -0.67201,2e-5 -1.37601,0.25602 -2.112,0.768 -0.73601,0.48002 -1.28001,0.96002 -1.632,1.44 l -0.576,0.72 0,17.568 c -1e-5,0.704 -0.64,1.056 -1.92,1.056 l -0.192,0 c -1.28,0 -1.92,-0.352 -1.92,-1.056"
             id="path4821"
             style="fill:#ffffff;fill-opacity:1" />
          <path
             d="m 466.39621,680.03361 c -3.58401,0 -6.336,-1.088 -8.256,-3.264 -1.888,-2.176 -2.832,-5.328 -2.832,-9.456 0,-4.15999 0.96,-7.35998 2.88,-9.6 1.92,-2.23998 4.65599,-3.35998 8.208,-3.36 3.55199,2e-5 6.25598,1.12002 8.112,3.36 1.88798,2.20802 2.83198,5.40801 2.832,9.6 -2e-5,4.16 -0.92802,7.328 -2.784,9.504 -1.82402,2.144 -4.54401,3.216 -8.16,3.216 m -5.232,-5.712 c 1.08799,1.504 2.79999,2.256 5.136,2.256 2.33599,0 4.06399,-0.752 5.184,-2.256 1.11998,-1.536 1.67998,-3.904 1.68,-7.104 -2e-5,-3.19999 -0.56002,-5.56799 -1.68,-7.104 -1.12001,-1.53598 -2.84801,-2.30398 -5.184,-2.304 -2.33601,2e-5 -4.04801,0.76802 -5.136,2.304 -1.088,1.50401 -1.632,3.87201 -1.632,7.104 0,3.2 0.544,5.568 1.632,7.104"
             id="path4823"
             style="fill:#ffffff;fill-opacity:1" />
          <path
             d="m 483.88546,673.40961 0,-28.704 c 0,-0.70397 0.64,-1.05597 1.92,-1.056 l 0.192,0 c 1.28,3e-5 1.91999,0.35203 1.92,1.056 l 0,28.32 c -1e-5,2.368 0.86399,3.552 2.592,3.552 0.54399,0 1.00799,-0.032 1.392,-0.096 0.38399,-0.096 0.60799,-0.144 0.672,-0.144 0.28799,0 0.52799,0.304 0.72,0.912 0.19199,0.576 0.28799,1.024 0.288,1.344 -10e-6,0.96 -1.16801,1.44 -3.504,1.44 -1.60001,0 -3.04,-0.48 -4.32,-1.44 -1.248,-0.992 -1.872,-2.72 -1.872,-5.184"
             id="path4825"
             style="fill:#ffffff;fill-opacity:1" />
          <path
             d="m 509.85871,678.78561 0,-16.848 c 0,-1.95198 -0.08,-3.34398 -0.24,-4.176 -0.224,-1.15198 -0.336,-1.77598 -0.336,-1.872 0,-0.38398 0.304,-0.65598 0.912,-0.816 0.608,-0.19198 1.072,-0.28798 1.392,-0.288 0.352,2e-5 0.592,0.032 0.72,0.096 0.128,0.064 0.24,0.17602 0.336,0.336 0.128,0.12802 0.224,0.27202 0.288,0.432 0.064,0.12802 0.128,0.32002 0.192,0.576 0.064,0.22402 0.112,0.41602 0.144,0.576 0.064,0.12802 0.112,0.33602 0.144,0.624 0.064,0.25602 0.112,0.43202 0.144,0.528 2.14399,-2.39998 4.52799,-3.59998 7.152,-3.6 2.65599,2e-5 4.67198,0.68802 6.048,2.064 1.40798,1.37602 2.11198,3.28002 2.112,5.712 l 0,16.656 c -2e-5,0.704 -0.64002,1.056 -1.92,1.056 l -0.192,0 c -1.28002,0 -1.92002,-0.352 -1.92,-1.056 l 0,-16.272 c -2e-5,-1.47199 -0.43202,-2.60798 -1.296,-3.408 -0.83201,-0.83198 -2.03201,-1.24798 -3.6,-1.248 -2.30401,2e-5 -4.32001,1.12002 -6.048,3.36 l 0,17.568 c -10e-6,0.704 -0.64,1.056 -1.92,1.056 l -0.192,0 c -1.28,0 -1.92,-0.352 -1.92,-1.056"
             id="path4827"
             style="fill:#ffffff;fill-opacity:1" />
          <path
             d="m 546.17746,680.03361 c -3.58401,0 -6.336,-1.088 -8.256,-3.264 -1.888,-2.176 -2.832,-5.328 -2.832,-9.456 0,-4.15999 0.96,-7.35998 2.88,-9.6 1.92,-2.23998 4.65599,-3.35998 8.208,-3.36 3.55199,2e-5 6.25598,1.12002 8.112,3.36 1.88798,2.20802 2.83198,5.40801 2.832,9.6 -2e-5,4.16 -0.92802,7.328 -2.784,9.504 -1.82402,2.144 -4.54401,3.216 -8.16,3.216 m -5.232,-5.712 c 1.08799,1.504 2.79999,2.256 5.136,2.256 2.33599,0 4.06399,-0.752 5.184,-2.256 1.11998,-1.536 1.67998,-3.904 1.68,-7.104 -2e-5,-3.19999 -0.56002,-5.56799 -1.68,-7.104 -1.12001,-1.53598 -2.84801,-2.30398 -5.184,-2.304 -2.33601,2e-5 -4.04801,0.76802 -5.136,2.304 -1.088,1.50401 -1.632,3.87201 -1.632,7.104 0,3.2 0.544,5.568 1.632,7.104"
             id="path4829"
             style="fill:#ffffff;fill-opacity:1" />
          <path
             d="m 561.17071,655.36161 c 0,-0.54398 0.688,-0.81598 2.064,-0.816 l 0.432,0 c 1.152,2e-5 1.792,0.25602 1.92,0.768 l 5.04,19.152 4.992,-19.104 c 0.12799,-0.54398 0.75199,-0.81598 1.872,-0.816 l 0.528,0 c 1.08798,2e-5 1.71198,0.27202 1.872,0.816 l 5.04,19.104 4.992,-19.152 c 0.12797,-0.51198 0.84797,-0.76798 2.16,-0.768 1.31197,2e-5 1.96797,0.27202 1.968,0.816 -3e-5,0.16002 -0.048,0.38402 -0.144,0.672 l -6.432,23.04 c -0.12802,0.512 -0.76802,0.768 -1.92,0.768 l -1.584,0 c -1.12002,0 -1.74402,-0.256 -1.872,-0.768 l -4.416,-17.472 -4.512,17.472 c -0.12801,0.512 -0.76801,0.768 -1.92,0.768 l -1.584,0 c -1.15201,0 -1.79201,-0.256 -1.92,-0.768 l -6.432,-23.088 c -0.096,-0.28798 -0.144,-0.49598 -0.144,-0.624"
             id="path4831"
             style="fill:#ffffff;fill-opacity:1" />
        </g>
      </a>
    </g>
  </g>
</svg>
